<?xml version="1.0" encoding="utf-8"?>
<!-- Generator: Adobe Illustrator 27.0.0, SVG Export Plug-In . SVG Version: 6.00 Build 0)  -->
<svg version="1.1" id="Layer_1" xmlns="http://www.w3.org/2000/svg" xmlns:xlink="http://www.w3.org/1999/xlink" x="0px" y="0px"
	 viewBox="0 0 16 13.89" style="enable-background:new 0 0 16 13.89;" xml:space="preserve">
<style type="text/css">
	.st0{fill:#231F20;}
	.st1{fill:#EE372A;}
	.st2{fill:#FFFFFF;}
	.st3{fill:#6B4825;}
	.st4{fill:#D08543;}
	.st5{fill:#202F60;}
	.st6{fill:#61C4B7;}
</style>
<g>
	<g>
		<g>
			<g>
				<path class="st0" d="M5.45,11.95C5.1,12.07,4.65,13.18,4,13.42c-1.04,0.39-1.58-0.56-1.99-0.7c0.32-0.3,0.43-1.4,1.53-1.49
					C4.23,11.18,5.09,12,5.45,11.95C5.45,11.95,5.45,11.95,5.45,11.95C5.45,11.95,5.45,11.95,5.45,11.95
					c-0.51-0.13-0.68-0.72-1.01-0.91c-0.03-0.02-0.06,0.02-0.05,0.05c0.01,0.02,0.02,0.04,0.03,0.06c0.01,0.03-0.02,0.06-0.05,0.04
					c-0.3-0.2-0.64-0.34-0.98-0.3c-0.03,0-0.04,0.05-0.01,0.07c0,0,0.01,0.01,0.01,0.01c0.03,0.02,0.02,0.07-0.02,0.07
					c-0.39,0-0.78,0.11-1.12,0.32c-0.03,0.02-0.02,0.07,0.02,0.07c0.03,0,0.05,0,0.07,0.01c0.03,0.01,0.04,0.05,0.01,0.07
					c-0.2,0.12-0.37,0.33-0.48,0.51c-0.02,0.03,0.01,0.07,0.05,0.05c0.06-0.04,0.14-0.06,0.21-0.08c0.03-0.01,0.05,0.02,0.04,0.05
					c-0.17,0.36-0.44,0.66-0.79,0.84c0.39,0.01,0.75,0.17,1.05,0.42c0.02,0.02,0.01,0.06-0.01,0.06c-0.08,0.02-0.15,0.03-0.23,0.02
					c-0.04,0-0.05,0.04-0.02,0.06c0.18,0.12,0.42,0.24,0.64,0.26c0.03,0,0.04,0.04,0.02,0.06c-0.01,0.01-0.03,0.02-0.06,0.03
					c-0.03,0.01-0.03,0.06,0.01,0.07c0.39,0.04,0.79-0.02,1.15-0.19c0.03-0.01,0.06,0.02,0.04,0.05c0,0,0,0,0,0
					C3.94,13.76,3.97,13.8,4,13.78c0.31-0.15,0.64-0.55,0.77-0.73c0.02-0.03,0.06-0.01,0.06,0.02c0,0.03,0,0.06-0.01,0.1
					c0,0.04,0.04,0.05,0.06,0.02C5.11,12.89,5.04,12.29,5.45,11.95C5.45,11.95,5.45,11.95,5.45,11.95
					C5.45,11.95,5.45,11.95,5.45,11.95z"/>
				<path class="st1" d="M5.44,11.95C5.44,11.95,5.44,11.95,5.44,11.95C5.44,11.96,5.44,11.96,5.44,11.95
					C5.44,11.96,5.44,11.96,5.44,11.95C5.44,11.96,5.44,11.96,5.44,11.95C5.44,11.96,5.44,11.96,5.44,11.95
					C5.44,11.96,5.44,11.96,5.44,11.95C5.44,11.96,5.43,11.96,5.44,11.95C5.43,11.96,5.43,11.96,5.44,11.95
					c-0.02,0-0.02,0.01-0.04,0.01C5.31,12,5.09,12.14,4.68,12.68c-0.33,0.43-0.81,0.63-1.23,0.61c-0.26-0.01-0.7-0.2-0.8-0.7
					c0,0,0,0,0,0c-0.11-0.5,0.22-0.86,0.45-0.98c0.37-0.2,0.88-0.22,1.36,0.03c0.58,0.31,0.84,0.34,0.94,0.34c0.01,0,0.01,0,0.01,0
					c0,0,0.01,0,0.01,0c0,0,0,0,0.01,0C5.43,11.96,5.43,11.96,5.44,11.95C5.44,11.96,5.44,11.96,5.44,11.95
					C5.44,11.96,5.44,11.96,5.44,11.95C5.44,11.96,5.44,11.96,5.44,11.95C5.44,11.95,5.44,11.95,5.44,11.95
					C5.44,11.95,5.44,11.95,5.44,11.95C5.44,11.95,5.45,11.95,5.44,11.95c-0.35,0.04-1.21-0.77-1.9-0.72
					c-1.1,0.09-1.21,1.19-1.53,1.49c0.41,0.14,0.95,1.09,1.99,0.7C4.65,13.18,5.1,12.07,5.44,11.95
					C5.45,11.95,5.44,11.95,5.44,11.95C5.44,11.95,5.44,11.95,5.44,11.95z"/>
				<path class="st2" d="M4.81,12.46c-0.27,0.3-0.63,0.44-0.96,0.44c-0.2,0-0.54-0.12-0.61-0.45c0,0,0,0,0,0
					c-0.07-0.33,0.2-0.58,0.38-0.67c0.3-0.14,0.68-0.17,1.05-0.01c0.44,0.18,0.65,0.2,0.74,0.2c-0.1,0-0.36-0.03-0.94-0.34
					c-0.48-0.25-0.99-0.22-1.36-0.03c-0.23,0.12-0.55,0.49-0.45,0.98c0,0,0,0,0,0c0.11,0.5,0.55,0.69,0.8,0.7
					c0.42,0.02,0.89-0.17,1.23-0.61C5.09,12.14,5.31,12,5.4,11.97C5.32,12,5.14,12.1,4.81,12.46z"/>
				<polygon class="st2" points="5.45,11.95 5.45,11.95 5.45,11.95 5.45,11.95 5.45,11.95 				"/>
				<polygon class="st2" points="5.45,11.95 5.45,11.95 5.45,11.95 5.45,11.95 5.45,11.95 				"/>
				<polygon class="st2" points="5.45,11.95 5.45,11.95 5.45,11.95 5.45,11.95 5.45,11.95 5.45,11.95 5.45,11.95 				"/>
				<polygon class="st2" points="5.45,11.95 5.45,11.95 5.45,11.95 5.45,11.95 5.45,11.95 5.45,11.95 				"/>
				<polygon class="st2" points="5.44,11.96 5.44,11.96 5.44,11.96 5.44,11.96 5.44,11.96 				"/>
				<polygon class="st2" points="5.44,11.96 5.44,11.95 5.44,11.95 				"/>
				<polygon class="st2" points="5.44,11.95 5.45,11.95 5.45,11.95 5.45,11.95 5.44,11.95 				"/>
				<polygon class="st2" points="5.44,11.95 5.44,11.95 5.44,11.95 				"/>
				<polygon class="st2" points="5.45,11.95 5.45,11.95 5.45,11.95 5.44,11.95 				"/>
				<polygon class="st2" points="5.44,11.96 5.44,11.96 5.44,11.95 				"/>
				<polygon class="st3" points="5.45,11.95 5.45,11.95 5.45,11.95 				"/>
				<polygon class="st3" points="5.45,11.95 5.45,11.95 5.45,11.95 				"/>
				<polygon class="st3" points="5.45,11.95 5.45,11.95 5.45,11.95 				"/>
				<path class="st1" d="M5.43,11.96C5.43,11.96,5.43,11.96,5.43,11.96c-0.01,0-0.01,0-0.01,0c0,0-0.01,0-0.01,0
					c-0.09,0.01-0.3-0.01-0.74-0.2c-0.37-0.16-0.75-0.13-1.05,0.01c-0.18,0.09-0.45,0.34-0.38,0.67c0,0,0,0,0,0
					c0.07,0.33,0.41,0.45,0.61,0.45c0.33,0,0.69-0.14,0.96-0.44C5.14,12.1,5.32,12,5.4,11.97C5.42,11.96,5.43,11.96,5.43,11.96
					C5.43,11.96,5.43,11.96,5.43,11.96C5.43,11.96,5.44,11.96,5.43,11.96C5.44,11.96,5.44,11.96,5.43,11.96
					C5.43,11.96,5.43,11.96,5.43,11.96z M4.16,12.5c-0.13,0.03-0.27-0.06-0.3-0.19C3.83,12.17,3.91,12.03,4.05,12
					c0.13-0.03,0.27,0.06,0.3,0.19C4.37,12.33,4.29,12.47,4.16,12.5z"/>
				<polygon class="st4" points="5.44,11.96 5.44,11.96 5.44,11.96 				"/>
				<polygon class="st4" points="5.44,11.96 5.44,11.96 5.44,11.96 				"/>
				<polygon class="st4" points="5.44,11.96 5.44,11.96 5.44,11.95 				"/>
				<polygon class="st4" points="5.44,11.95 5.44,11.96 5.44,11.95 				"/>
				<polygon class="st4" points="5.45,11.95 5.45,11.95 5.45,11.95 				"/>
				<polygon class="st4" points="5.45,11.95 5.45,11.95 5.45,11.95 				"/>
				<polygon class="st4" points="5.45,11.95 5.45,11.95 5.45,11.95 				"/>
				<polygon class="st4" points="5.44,11.95 5.45,11.95 5.45,11.95 5.45,11.95 				"/>
				<polygon class="st4" points="5.44,11.95 5.44,11.95 5.44,11.95 5.44,11.95 5.44,11.95 				"/>
				<polygon class="st4" points="5.45,11.95 5.45,11.95 5.45,11.95 5.45,11.95 				"/>
				<polygon class="st4" points="5.45,11.95 5.45,11.95 5.45,11.95 5.45,11.95 				"/>
				<polygon class="st4" points="5.45,11.95 5.45,11.95 5.45,11.95 				"/>
				<polygon class="st4" points="5.45,11.95 5.45,11.95 5.45,11.95 5.45,11.95 				"/>
				<polygon class="st4" points="5.45,11.95 5.45,11.95 5.44,11.95 5.44,11.95 5.44,11.95 5.44,11.95 5.45,11.95 5.45,11.95 
					5.45,11.95 				"/>
				<path class="st0" d="M4.05,12c-0.13,0.03-0.22,0.17-0.19,0.31c0.03,0.14,0.16,0.23,0.3,0.19c0.13-0.03,0.22-0.17,0.19-0.31
					C4.31,12.05,4.18,11.97,4.05,12z"/>
			</g>
			<g>
				<path class="st0" d="M13.76,13.4c-0.07,0-0.15-0.01-0.22-0.03c-0.03-0.01-0.04-0.04-0.01-0.06c0.31-0.25,0.67-0.4,1.06-0.4
					c-0.34-0.19-0.6-0.49-0.77-0.85c-0.01-0.03,0.01-0.06,0.04-0.05c0.08,0.02,0.15,0.05,0.21,0.08c0.03,0.02,0.06-0.02,0.05-0.05
					c-0.11-0.19-0.27-0.4-0.47-0.53c-0.03-0.02-0.02-0.06,0.01-0.07c0.02,0,0.04-0.01,0.07,0c0.04,0,0.05-0.05,0.02-0.07
					c-0.33-0.21-0.72-0.33-1.11-0.34c-0.04,0-0.05-0.05-0.01-0.07c0,0,0,0,0,0c0.03-0.02,0.02-0.07-0.02-0.07
					c-0.34,0-0.81,0.21-1,0.31c-0.03,0.01-0.06-0.02-0.05-0.05c0.01-0.03,0.03-0.06,0.05-0.09c0.02-0.03-0.01-0.07-0.05-0.05
					c-0.33,0.19-0.51,0.76-1.03,0.87c0,0,0,0,0,0c0.36,0.05,1.24-0.74,1.92-0.67c1.1,0.11,1.18,1.21,1.5,1.52
					c-0.42,0.13-0.98,1.07-2.01,0.65c-0.64-0.26-1.07-1.38-1.42-1.5c0,0,0,0,0,0c0,0,0,0,0,0c0.41,0.35,0.32,0.95,0.54,1.27
					c0.02,0.03,0.06,0.01,0.06-0.02c0-0.02,0-0.05,0-0.07c0-0.03,0.05-0.05,0.06-0.02c0.19,0.31,0.43,0.59,0.75,0.71
					c0.03,0.01,0.06-0.03,0.04-0.05c0,0-0.01-0.01-0.01-0.01c-0.02-0.03,0.01-0.07,0.04-0.05c0.35,0.17,0.75,0.25,1.14,0.22
					c0.04,0,0.04-0.05,0.01-0.07c-0.03-0.01-0.04-0.02-0.06-0.03c-0.03-0.02-0.01-0.06,0.02-0.06c0.23-0.02,0.47-0.13,0.65-0.25
					C13.81,13.45,13.8,13.4,13.76,13.4z"/>
				<path class="st1" d="M10.54,11.91C10.54,11.91,10.54,11.91,10.54,11.91C10.54,11.91,10.54,11.91,10.54,11.91
					C10.54,11.91,10.54,11.91,10.54,11.91C10.54,11.91,10.54,11.91,10.54,11.91C10.54,11.91,10.54,11.91,10.54,11.91
					C10.54,11.91,10.54,11.91,10.54,11.91C10.54,11.91,10.54,11.91,10.54,11.91C10.54,11.91,10.53,11.91,10.54,11.91
					C10.53,11.91,10.53,11.91,10.54,11.91c0.34,0.12,0.77,1.24,1.41,1.5c1.03,0.42,1.59-0.52,2.01-0.65
					c-0.31-0.31-0.4-1.41-1.5-1.52C11.77,11.16,10.89,11.96,10.54,11.91C10.53,11.9,10.53,11.9,10.54,11.91
					C10.54,11.91,10.54,11.91,10.54,11.91z M10.54,11.91L10.54,11.91C10.55,11.91,10.55,11.91,10.54,11.91c0.01,0,0.02,0,0.03,0
					c0,0,0,0,0,0c0.1,0.01,0.36-0.02,0.95-0.32c0.48-0.24,0.99-0.2,1.36,0c0.23,0.12,0.54,0.5,0.43,0.99c0,0,0,0,0,0
					c-0.12,0.5-0.56,0.68-0.82,0.68c-0.42,0.01-0.89-0.19-1.21-0.64c-0.4-0.55-0.62-0.69-0.71-0.73c0,0,0,0,0,0c0,0-0.01,0-0.01,0
					C10.55,11.91,10.55,11.91,10.54,11.91C10.55,11.91,10.55,11.91,10.54,11.91C10.54,11.91,10.54,11.91,10.54,11.91
					C10.54,11.91,10.54,11.91,10.54,11.91C10.54,11.91,10.54,11.91,10.54,11.91C10.54,11.91,10.54,11.91,10.54,11.91z"/>
				<polygon class="st2" points="10.53,11.9 10.53,11.9 10.53,11.9 10.53,11.9 10.53,11.9 				"/>
				<polygon class="st2" points="10.53,11.9 10.53,11.9 10.53,11.9 10.53,11.9 10.53,11.9 10.53,11.9 				"/>
				<polygon class="st2" points="10.53,11.9 10.53,11.9 10.53,11.9 10.53,11.9 10.53,11.9 10.53,11.91 				"/>
				<polygon class="st2" points="10.53,11.9 10.53,11.9 10.53,11.9 10.53,11.9 10.53,11.9 10.53,11.9 				"/>
				<polygon class="st2" points="10.53,11.91 10.53,11.9 10.53,11.9 				"/>
				<polygon class="st2" points="10.53,11.9 10.53,11.91 10.53,11.91 10.53,11.91 				"/>
				<polygon class="st2" points="10.54,11.91 10.54,11.91 10.54,11.91 				"/>
				<path class="st2" d="M11.32,11.73c0.37-0.15,0.75-0.11,1.05,0.04c0.18,0.09,0.44,0.35,0.36,0.68c0,0,0,0,0,0
					c-0.08,0.33-0.42,0.44-0.62,0.43c-0.33-0.01-0.68-0.15-0.95-0.46c-0.32-0.37-0.51-0.48-0.58-0.51c0.09,0.04,0.31,0.18,0.71,0.73
					c0.32,0.44,0.8,0.65,1.21,0.64c0.26-0.01,0.7-0.19,0.82-0.68c0,0,0,0,0,0c0.12-0.5-0.2-0.87-0.43-0.99
					c-0.37-0.2-0.88-0.24-1.36,0c-0.59,0.3-0.85,0.32-0.95,0.32C10.66,11.92,10.87,11.91,11.32,11.73z"/>
				<polygon class="st3" points="10.53,11.9 10.53,11.9 10.53,11.9 				"/>
				<polygon class="st3" points="10.53,11.9 10.53,11.9 10.53,11.9 				"/>
				<polygon class="st3" points="10.53,11.9 10.53,11.9 10.53,11.9 				"/>
				<polygon class="st3" points="10.53,11.9 10.53,11.9 10.53,11.9 				"/>
				<polygon class="st3" points="10.54,11.91 10.54,11.91 10.54,11.91 				"/>
				<polygon class="st3" points="10.54,11.91 10.54,11.91 10.54,11.91 				"/>
				<path class="st3" d="M10.55,11.91c0.01,0,0.02,0,0.03,0C10.56,11.91,10.55,11.91,10.55,11.91z"/>
				<path class="st1" d="M10.55,11.91c0,0,0.01,0,0.02,0c0,0,0.01,0,0.01,0c0,0,0,0,0,0c0.08,0.03,0.26,0.14,0.58,0.51
					c0.27,0.31,0.62,0.45,0.95,0.46c0.2,0,0.55-0.1,0.62-0.43c0,0,0,0,0,0c0.08-0.33-0.18-0.59-0.36-0.68
					c-0.29-0.15-0.68-0.19-1.05-0.04c-0.44,0.17-0.65,0.19-0.74,0.18c0,0,0,0,0,0C10.56,11.91,10.55,11.91,10.55,11.91
					C10.55,11.91,10.55,11.91,10.55,11.91C10.55,11.91,10.55,11.91,10.55,11.91z M11.63,12.18c0.03-0.14,0.16-0.22,0.3-0.19
					c0.13,0.03,0.22,0.17,0.19,0.31c-0.03,0.14-0.16,0.22-0.3,0.19C11.68,12.46,11.6,12.32,11.63,12.18z"/>
				<polygon class="st4" points="10.53,11.9 10.53,11.9 10.53,11.9 10.53,11.9 				"/>
				<polygon class="st4" points="10.54,11.91 10.54,11.91 10.54,11.91 10.54,11.91 				"/>
				<polygon class="st4" points="10.54,11.91 10.54,11.91 10.54,11.91 				"/>
				<polygon class="st4" points="10.53,11.9 10.53,11.9 10.53,11.9 				"/>
				<polygon class="st4" points="10.54,11.91 10.54,11.91 10.54,11.91 10.54,11.91 10.54,11.91 10.53,11.9 10.53,11.9 10.53,11.91 
									"/>
				<polygon class="st4" points="10.53,11.9 10.53,11.9 10.53,11.9 10.53,11.9 				"/>
				<polygon class="st4" points="10.53,11.9 10.53,11.9 10.53,11.9 10.53,11.9 10.53,11.9 				"/>
				<polygon class="st4" points="10.53,11.9 10.53,11.9 10.53,11.9 10.53,11.9 				"/>
				<polygon class="st4" points="10.53,11.9 10.53,11.9 10.53,11.9 10.53,11.9 10.53,11.9 				"/>
				<polygon class="st4" points="10.54,11.91 10.53,11.91 10.53,11.9 10.53,11.9 10.53,11.9 10.53,11.9 10.53,11.9 10.54,11.91 				
					"/>
				<polygon class="st4" points="10.54,11.91 10.54,11.91 10.54,11.91 				"/>
				<polygon class="st4" points="10.55,11.91 10.55,11.91 10.54,11.91 10.54,11.91 				"/>
				<polygon class="st4" points="10.55,11.91 10.55,11.91 10.55,11.91 10.55,11.91 				"/>
				<path class="st0" d="M11.81,12.49c0.13,0.03,0.27-0.05,0.3-0.19c0.03-0.14-0.05-0.28-0.19-0.31c-0.13-0.03-0.27,0.05-0.3,0.19
					C11.6,12.32,11.68,12.46,11.81,12.49z"/>
			</g>
			<g>
				<g>
					<path class="st0" d="M4.91,11.05c-0.44-0.07-1.49,0.9-2.33,0.82c-1.33-0.13-1.44-1.47-1.82-1.84c0.5-0.16,1.18-1.3,2.43-0.79
						C3.97,9.55,4.49,10.91,4.91,11.05L4.91,11.05C4.91,11.05,4.91,11.05,4.91,11.05c-0.5-0.42-0.38-1.16-0.65-1.54
						C4.24,9.48,4.19,9.5,4.19,9.54c0,0.03,0,0.06,0,0.08c0,0.04-0.06,0.06-0.08,0.02C3.88,9.27,3.58,8.93,3.19,8.78
						C3.15,8.77,3.12,8.81,3.15,8.85c0,0.01,0.01,0.01,0.01,0.02C3.18,8.9,3.14,8.95,3.11,8.93c-0.43-0.21-0.91-0.3-1.39-0.26
						c-0.04,0-0.05,0.06-0.01,0.08c0.03,0.01,0.05,0.03,0.07,0.04c0.03,0.02,0.02,0.07-0.02,0.08c-0.27,0.02-0.57,0.16-0.78,0.3
						C0.93,9.2,0.95,9.25,0.99,9.25c0.09,0,0.18,0.01,0.27,0.03C1.3,9.29,1.31,9.34,1.28,9.36C0.91,9.66,0.47,9.84,0,9.84
						c0.42,0.22,0.73,0.59,0.93,1.03c0.01,0.03-0.01,0.07-0.05,0.06c-0.09-0.02-0.18-0.05-0.26-0.1c-0.04-0.02-0.08,0.02-0.06,0.06
						c0.13,0.23,0.33,0.49,0.57,0.63c0.03,0.02,0.02,0.07-0.01,0.08c-0.02,0-0.05,0.01-0.08,0.01c-0.04,0-0.06,0.06-0.02,0.08
						c0.4,0.26,0.88,0.4,1.35,0.41c0.04,0,0.06,0.06,0.02,0.08c0,0,0,0,0,0c-0.04,0.02-0.02,0.08,0.02,0.08
						c0.41,0,0.98-0.26,1.21-0.38c0.04-0.02,0.07,0.02,0.06,0.06c-0.02,0.03-0.04,0.07-0.06,0.1c-0.02,0.04,0.02,0.08,0.06,0.06
						C4.07,11.89,4.29,11.19,4.91,11.05C4.91,11.06,4.91,11.06,4.91,11.05C4.91,11.05,4.91,11.05,4.91,11.05z"/>
					<path class="st1" d="M4.9,11.05C4.9,11.05,4.9,11.05,4.9,11.05C4.9,11.05,4.9,11.05,4.9,11.05C4.9,11.05,4.9,11.05,4.9,11.05
						C4.89,11.05,4.89,11.05,4.9,11.05c-0.02,0-0.03-0.01-0.04-0.01c0,0,0,0-0.01,0c-0.12-0.01-0.43,0.02-1.15,0.38
						c-0.59,0.29-1.2,0.25-1.65,0c-0.27-0.15-0.66-0.6-0.52-1.2c0,0,0,0,0,0c0.14-0.6,0.68-0.82,0.99-0.83
						C3.04,9.38,3.61,9.63,4,10.16c0.48,0.65,0.74,0.83,0.85,0.88c0,0,0,0,0.01,0c0,0,0,0,0,0c0.01,0,0.01,0,0.02,0.01
						c0,0,0,0,0.01,0C4.89,11.05,4.89,11.05,4.9,11.05C4.89,11.05,4.9,11.05,4.9,11.05C4.9,11.05,4.9,11.05,4.9,11.05
						C4.9,11.05,4.9,11.05,4.9,11.05C4.9,11.05,4.9,11.05,4.9,11.05C4.9,11.05,4.9,11.05,4.9,11.05C4.9,11.05,4.91,11.05,4.9,11.05
						C4.91,11.05,4.91,11.05,4.9,11.05c-0.41-0.14-0.93-1.5-1.71-1.81c-1.25-0.5-1.93,0.64-2.43,0.79c0.38,0.37,0.48,1.71,1.82,1.84
						C3.42,11.96,4.47,10.99,4.9,11.05C4.91,11.05,4.91,11.05,4.9,11.05C4.9,11.05,4.9,11.05,4.9,11.05z"/>
					<path class="st2" d="M3.96,11.26c-0.45,0.18-0.91,0.13-1.27-0.04c-0.22-0.11-0.53-0.42-0.44-0.82c0,0,0,0,0,0
						C2.34,10,2.76,9.87,3,9.87c0.4,0.01,0.83,0.18,1.15,0.55c0.38,0.44,0.6,0.57,0.7,0.61C4.74,10.99,4.48,10.81,4,10.16
						C3.61,9.63,3.04,9.38,2.53,9.39C2.22,9.4,1.68,9.62,1.54,10.22c0,0,0,0,0,0c-0.14,0.6,0.25,1.05,0.52,1.2
						c0.45,0.25,1.06,0.29,1.65,0c0.72-0.36,1.03-0.39,1.15-0.38C4.75,11.03,4.49,11.05,3.96,11.26z"/>
					<polygon class="st2" points="4.92,11.06 4.91,11.06 4.92,11.06 4.92,11.06 4.92,11.06 					"/>
					<polygon class="st2" points="4.91,11.05 4.92,11.05 4.92,11.05 4.92,11.05 					"/>
					<polygon class="st2" points="4.91,11.06 4.91,11.06 4.91,11.05 4.91,11.05 4.91,11.06 4.92,11.06 					"/>
					<polygon class="st2" points="4.91,11.05 4.91,11.05 4.91,11.05 4.91,11.05 4.92,11.05 4.91,11.05 4.91,11.05 					"/>
					<polygon class="st2" points="4.91,11.05 4.91,11.05 4.91,11.05 					"/>
					<path class="st1" d="M4.9,11.05C4.9,11.05,4.89,11.05,4.9,11.05C4.89,11.05,4.89,11.05,4.9,11.05c-0.01,0-0.01,0-0.01,0
						c0,0,0,0-0.01,0c0,0-0.01,0-0.02-0.01c0,0,0,0,0,0c0,0,0,0-0.01,0c-0.1-0.04-0.32-0.18-0.7-0.61C3.83,10.06,3.4,9.88,3,9.87
						c-0.24,0-0.66,0.13-0.75,0.52c0,0,0,0,0,0c-0.09,0.4,0.22,0.71,0.44,0.82c0.36,0.18,0.82,0.22,1.27,0.04
						c0.53-0.21,0.79-0.23,0.9-0.22c0,0,0,0,0.01,0C4.87,11.05,4.88,11.05,4.9,11.05C4.89,11.05,4.89,11.05,4.9,11.05
						C4.9,11.05,4.9,11.05,4.9,11.05C4.9,11.05,4.9,11.05,4.9,11.05z"/>
					<path class="st3" d="M4.89,11.05c-0.01,0-0.02,0-0.03,0C4.87,11.05,4.88,11.05,4.89,11.05z"/>
					<polygon class="st3" points="4.89,11.05 4.88,11.05 4.89,11.05 					"/>
					<polygon class="st3" points="4.92,11.05 4.92,11.05 4.92,11.06 4.92,11.05 4.92,11.05 					"/>
					<polygon class="st3" points="4.92,11.06 4.92,11.06 4.92,11.06 					"/>
					<polygon class="st3" points="4.92,11.06 4.92,11.06 4.92,11.06 					"/>
					<polygon class="st4" points="4.9,11.05 4.91,11.05 4.9,11.05 4.9,11.05 					"/>
					<polygon class="st4" points="4.9,11.05 4.9,11.05 4.9,11.05 					"/>
					<polygon class="st4" points="4.9,11.05 4.9,11.05 4.9,11.05 					"/>
					<polygon class="st4" points="4.9,11.05 4.9,11.05 4.9,11.05 					"/>
					<polygon class="st4" points="4.9,11.05 4.9,11.05 4.9,11.05 					"/>
					<polygon class="st4" points="4.9,11.05 4.9,11.05 4.9,11.05 					"/>
					<polygon class="st4" points="4.9,11.05 4.9,11.05 4.9,11.05 4.9,11.05 					"/>
					<polygon class="st4" points="4.9,11.05 4.9,11.05 4.9,11.05 4.9,11.05 					"/>
					<polygon class="st4" points="4.9,11.05 4.91,11.05 4.91,11.05 4.91,11.05 					"/>
					<path class="st4" d="M4.91,11.05C4.91,11.05,4.91,11.05,4.91,11.05C4.91,11.05,4.91,11.05,4.91,11.05
						C4.91,11.05,4.91,11.05,4.91,11.05C4.91,11.05,4.91,11.05,4.91,11.05C4.9,11.05,4.9,11.05,4.91,11.05z"/>
					<polygon class="st4" points="4.9,11.05 4.9,11.05 4.9,11.05 					"/>
					<polygon class="st4" points="4.9,11.05 4.9,11.05 4.9,11.05 					"/>
					<polygon class="st4" points="4.9,11.05 4.9,11.05 4.9,11.05 					"/>
					<polygon class="st4" points="4.92,11.06 4.92,11.06 4.92,11.06 4.92,11.06 					"/>
					<polygon class="st4" points="4.92,11.05 4.92,11.06 4.92,11.06 4.92,11.05 					"/>
					<polygon class="st4" points="4.91,11.06 4.91,11.06 4.92,11.06 4.92,11.06 4.91,11.05 					"/>
					<polygon class="st4" points="4.91,11.05 4.91,11.05 4.92,11.06 4.92,11.05 4.92,11.05 4.91,11.05 					"/>
					<path class="st4" d="M4.91,11.05C4.91,11.05,4.91,11.05,4.91,11.05L4.91,11.05C4.91,11.05,4.91,11.05,4.91,11.05
						C4.91,11.06,4.92,11.06,4.91,11.05C4.92,11.06,4.91,11.05,4.91,11.05C4.91,11.05,4.91,11.05,4.91,11.05z"/>
				</g>
				<ellipse class="st0" cx="3.29" cy="10.65" rx="0.3" ry="0.31"/>
			</g>
			<g>
				<path class="st0" d="M16,9.9c-0.47-0.02-0.91-0.21-1.27-0.52c-0.03-0.02-0.02-0.07,0.02-0.08c0.09-0.02,0.18-0.03,0.27-0.02
					c0.04,0,0.06-0.05,0.03-0.08c-0.22-0.15-0.5-0.29-0.78-0.32c-0.04,0-0.05-0.05-0.02-0.08c0.02-0.01,0.04-0.03,0.07-0.04
					c0.04-0.02,0.03-0.08-0.01-0.08c-0.47-0.05-0.96,0.03-1.39,0.23c-0.04,0.02-0.08-0.03-0.05-0.06c0,0,0,0,0,0
					c0.03-0.04-0.01-0.08-0.05-0.06c-0.38,0.18-0.78,0.67-0.94,0.88c-0.02,0.03-0.08,0.01-0.07-0.03c0-0.04,0-0.08,0.01-0.12
					c0-0.04-0.05-0.06-0.08-0.03c-0.26,0.38-0.17,1.11-0.68,1.51c0,0,0,0,0,0c0.42-0.13,0.97-1.48,1.76-1.77
					c1.26-0.47,1.91,0.68,2.41,0.85c-0.39,0.36-0.52,1.7-1.86,1.8c-0.83,0.06-1.87-0.93-2.31-0.87c0,0,0,0-0.01,0
					c0.63,0.15,0.83,0.87,1.23,1.1c0.03,0.02,0.07-0.02,0.06-0.06c-0.01-0.03-0.02-0.05-0.03-0.08c-0.02-0.04,0.03-0.08,0.06-0.05
					c0.36,0.24,0.78,0.41,1.19,0.37c0.04,0,0.05-0.06,0.02-0.08c-0.01,0-0.01-0.01-0.02-0.01c-0.04-0.02-0.02-0.08,0.02-0.08
					c0.48,0,0.95-0.13,1.36-0.38c0.04-0.02,0.02-0.08-0.02-0.08c-0.03,0-0.06,0-0.08-0.01c-0.04-0.01-0.05-0.06-0.01-0.08
					c0.24-0.14,0.44-0.4,0.58-0.62c0.02-0.04-0.02-0.08-0.05-0.06c-0.08,0.04-0.16,0.07-0.26,0.09c-0.03,0.01-0.06-0.03-0.05-0.06
					C15.25,10.47,15.58,10.11,16,9.9z"/>
				<path class="st1" d="M11.07,10.99C11.07,10.99,11.07,10.99,11.07,10.99C11.07,10.99,11.07,10.99,11.07,10.99
					C11.07,10.99,11.07,10.99,11.07,10.99C11.07,10.99,11.07,10.99,11.07,10.99C11.07,10.99,11.07,10.99,11.07,10.99
					C11.07,10.99,11.08,10.99,11.07,10.99C11.08,10.99,11.08,10.99,11.07,10.99C11.08,10.99,11.08,10.99,11.07,10.99
					c0.01,0,0.01,0,0.01,0c0,0,0,0,0,0c0,0,0,0,0,0c0,0,0.01,0,0.01,0c0,0,0,0,0,0c0,0,0.01,0,0.01,0c0,0,0.01,0,0.01-0.01
					c0.11-0.04,0.38-0.21,0.87-0.86c0.4-0.53,0.98-0.76,1.49-0.73c0.31,0.01,0.85,0.25,0.97,0.85c0,0,0,0,0,0
					c0.13,0.6-0.27,1.05-0.55,1.19c-0.45,0.24-1.07,0.27-1.65-0.04c-0.75-0.4-1.05-0.42-1.16-0.41c0,0,0,0,0,0c0,0,0,0-0.01,0
					c0,0,0,0,0,0c0,0,0,0-0.01,0C11.08,10.99,11.08,10.99,11.07,10.99C11.08,10.99,11.08,10.99,11.07,10.99
					C11.08,10.99,11.08,10.99,11.07,10.99C11.07,10.99,11.07,10.99,11.07,10.99C11.07,11,11.07,11,11.07,10.99
					c0.43-0.05,1.47,0.94,2.31,0.87c1.33-0.1,1.47-1.43,1.86-1.8c-0.5-0.17-1.15-1.32-2.41-0.85C12.03,9.52,11.49,10.86,11.07,10.99
					C11.07,10.99,11.07,10.99,11.07,10.99C11.07,10.99,11.07,10.99,11.07,10.99z"/>
				<polygon class="st2" points="11.06,11 11.06,11 11.06,11 				"/>
				<polygon class="st2" points="11.06,11 11.06,11 11.06,11 11.06,11 				"/>
				<polygon class="st2" points="11.06,11 11.06,11 11.06,11 11.06,11 11.06,11 11.06,11 				"/>
				<polygon class="st2" points="11.06,11 11.06,11 11.06,11 11.06,11 11.07,11 				"/>
				<polygon class="st2" points="11.06,11 11.06,11 11.06,11 11.06,10.99 11.06,11 11.06,11 				"/>
				<polygon class="st2" points="11.06,11 11.07,11 11.07,10.99 				"/>
				<polygon class="st2" points="11.07,10.99 11.07,10.99 11.06,10.99 11.06,11 				"/>
				<polygon class="st2" points="11.08,10.99 11.08,10.99 11.08,10.99 				"/>
				<polygon class="st2" points="11.08,10.99 11.07,10.99 11.07,10.99 11.07,10.99 				"/>
				<polygon class="st2" points="11.08,10.99 11.08,10.99 11.08,10.99 11.08,10.99 11.08,10.99 11.08,10.99 				"/>
				<polygon class="st2" points="11.08,10.99 11.08,10.99 11.08,10.99 				"/>
				<path class="st2" d="M11.83,10.38c0.33-0.36,0.77-0.53,1.16-0.52c0.24,0,0.66,0.14,0.74,0.54c0,0,0,0,0,0
					c0.08,0.4-0.24,0.7-0.46,0.81c-0.36,0.17-0.82,0.2-1.27,0.01c-0.56-0.24-0.81-0.25-0.91-0.24c0.1-0.01,0.41,0.01,1.16,0.41
					c0.58,0.31,1.2,0.27,1.65,0.04c0.28-0.14,0.67-0.59,0.55-1.19c0,0,0,0,0,0c-0.13-0.6-0.66-0.84-0.97-0.85
					c-0.51-0.02-1.08,0.21-1.49,0.73c-0.49,0.64-0.76,0.81-0.87,0.86C11.22,10.94,11.44,10.81,11.83,10.38z"/>
				<polygon class="st3" points="11.06,11 11.06,11 11.06,11 11.06,11 				"/>
				<polygon class="st3" points="11.06,11 11.06,11 11.06,11 				"/>
				<polygon class="st3" points="11.06,11 11.06,11 11.06,11 				"/>
				<polygon class="st3" points="11.08,10.99 11.08,10.99 11.08,10.99 				"/>
				<polygon class="st3" points="11.08,10.99 11.08,10.99 11.08,10.99 				"/>
				<polygon class="st3" points="11.08,10.99 11.08,10.99 11.08,10.99 				"/>
				<polygon class="st3" points="11.08,10.99 11.08,10.99 11.08,10.99 				"/>
				<polygon class="st3" points="11.09,10.99 11.08,10.99 11.08,10.99 				"/>
				<path class="st1" d="M11.08,10.99C11.08,10.99,11.09,10.99,11.08,10.99c0.01,0,0.01,0,0.01,0c0,0,0,0,0.01,0c0,0,0,0,0,0
					c0.09-0.01,0.35,0,0.91,0.24c0.45,0.19,0.91,0.15,1.27-0.01c0.22-0.1,0.54-0.41,0.46-0.81c0,0,0,0,0,0
					C13.65,10,13.24,9.86,13,9.86c-0.4,0-0.83,0.16-1.16,0.52c-0.39,0.43-0.62,0.56-0.72,0.6c0,0-0.01,0-0.01,0.01
					c0,0-0.01,0-0.01,0C11.09,10.99,11.09,10.99,11.08,10.99C11.09,10.99,11.09,10.99,11.08,10.99
					C11.08,10.99,11.09,10.99,11.08,10.99C11.09,10.99,11.08,10.99,11.08,10.99C11.08,10.99,11.08,10.99,11.08,10.99L11.08,10.99z
					 M12.63,10.34c0.16-0.04,0.32,0.07,0.36,0.24c0.04,0.17-0.07,0.33-0.23,0.37c-0.16,0.04-0.32-0.07-0.36-0.24
					C12.36,10.54,12.47,10.37,12.63,10.34z"/>
				<polygon class="st4" points="11.06,11 11.06,11 11.06,11 				"/>
				<polygon class="st4" points="11.06,11 11.06,11 11.06,11 				"/>
				<polygon class="st4" points="11.07,10.99 11.07,10.99 11.07,10.99 11.06,11 11.07,10.99 				"/>
				<polygon class="st4" points="11.07,10.99 11.07,10.99 11.07,10.99 				"/>
				<polygon class="st4" points="11.06,11 11.06,11 11.06,11 				"/>
				<polygon class="st4" points="11.06,11 11.06,11 11.06,11 11.06,11 				"/>
				<polygon class="st4" points="11.06,11 11.06,11 11.06,11 11.06,11 				"/>
				<polygon class="st4" points="11.06,11 11.06,11 11.06,11 11.06,11 				"/>
				<polygon class="st4" points="11.07,10.99 11.07,10.99 11.07,10.99 11.06,11 11.06,11 11.06,11 11.06,11 11.06,11 11.07,10.99 
									"/>
				<polygon class="st4" points="11.08,10.99 11.07,10.99 11.08,10.99 				"/>
				<polygon class="st4" points="11.08,10.99 11.08,10.99 11.08,10.99 				"/>
				<polygon class="st4" points="11.08,10.99 11.08,10.99 11.09,10.99 				"/>
				<path class="st0" d="M12.76,10.94c0.16-0.04,0.26-0.2,0.23-0.37c-0.04-0.17-0.2-0.27-0.36-0.24c-0.16,0.04-0.26,0.2-0.23,0.37
					C12.44,10.88,12.6,10.98,12.76,10.94z"/>
			</g>
			<g>
				<path class="st0" d="M5.13,9.9c-0.42-0.29-1.99,0.17-2.81-0.35C1.01,8.73,1.54,7.29,1.33,6.71c0.6,0.1,1.85-0.74,2.9,0.42
					C4.89,7.86,4.77,9.54,5.13,9.9C5.14,9.9,5.14,9.9,5.13,9.9C5.14,9.9,5.14,9.9,5.13,9.9C4.82,9.21,5.3,8.51,5.21,7.98
					C5.2,7.93,5.14,7.92,5.12,7.96C5.11,7.99,5.09,8.02,5.07,8.05C5.05,8.09,4.99,8.08,4.98,8.03c-0.05-0.51-0.2-1.01-0.53-1.37
					c-0.03-0.04-0.09,0-0.08,0.04c0,0.01,0,0.02,0,0.02c0.01,0.05-0.05,0.08-0.08,0.04c-0.34-0.44-0.8-0.78-1.31-0.98
					C2.93,5.77,2.89,5.83,2.93,5.87C2.95,5.9,2.97,5.92,2.98,5.94C3,5.98,2.96,6.03,2.92,6.01C2.62,5.9,2.25,5.89,1.96,5.92
					C1.91,5.93,1.9,6,1.95,6.02c0.09,0.04,0.18,0.1,0.27,0.17c0.03,0.03,0.02,0.08-0.02,0.09C1.66,6.4,1.12,6.36,0.63,6.12
					C0.95,6.57,1.1,7.11,1.09,7.67c0,0.04-0.05,0.06-0.08,0.04C0.93,7.64,0.85,7.56,0.8,7.47C0.77,7.43,0.7,7.45,0.71,7.5
					c0.03,0.31,0.11,0.68,0.28,0.95c0.02,0.04-0.01,0.09-0.05,0.07C0.91,8.52,0.88,8.51,0.85,8.49C0.81,8.47,0.76,8.52,0.79,8.56
					c0.3,0.48,0.71,0.87,1.2,1.12c0.04,0.02,0.03,0.09-0.02,0.09c0,0,0,0,0,0c-0.05,0-0.06,0.07-0.02,0.09
					c0.43,0.22,1.14,0.24,1.44,0.23c0.05,0,0.07,0.06,0.03,0.09c-0.03,0.03-0.07,0.05-0.11,0.08c-0.04,0.03-0.02,0.09,0.03,0.09
					C3.86,10.33,4.42,9.73,5.13,9.9C5.14,9.9,5.13,9.9,5.13,9.9z"/>
				<path class="st1" d="M5.13,9.9C5.13,9.9,5.13,9.9,5.13,9.9L5.13,9.9C5.12,9.89,5.12,9.89,5.13,9.9C5.12,9.89,5.12,9.89,5.13,9.9
					C5.12,9.89,5.12,9.89,5.11,9.89C5.11,9.88,5.1,9.87,5.09,9.87c0,0,0,0-0.01,0c-0.12-0.07-0.46-0.2-1.38-0.19
					C2.96,9.67,2.34,9.31,2,8.82C1.79,8.53,1.6,7.86,2.04,7.31c0,0,0,0,0,0c0.44-0.55,1.11-0.5,1.43-0.35c0.53,0.25,1,0.8,1.15,1.55
					C4.81,9.45,5,9.76,5.09,9.86c0,0,0,0,0,0.01l0,0c0,0,0,0,0,0.01c0,0,0,0,0,0c0,0,0.01,0.01,0.01,0.01
					C5.12,9.89,5.12,9.89,5.13,9.9C5.12,9.89,5.12,9.89,5.13,9.9C5.12,9.89,5.12,9.89,5.13,9.9C5.12,9.89,5.12,9.89,5.13,9.9
					C5.12,9.89,5.12,9.89,5.13,9.9L5.13,9.9C5.12,9.89,5.12,9.89,5.13,9.9C5.13,9.9,5.13,9.9,5.13,9.9C5.13,9.9,5.13,9.9,5.13,9.9
					c-0.36-0.36-0.24-2.03-0.9-2.76c-1.05-1.16-2.31-0.33-2.9-0.42c0.21,0.58-0.32,2.02,0.99,2.84C3.15,10.07,4.71,9.61,5.13,9.9
					C5.13,9.9,5.13,9.9,5.13,9.9C5.13,9.9,5.13,9.9,5.13,9.9z"/>
				<path class="st2" d="M2.75,8.93C2.58,8.71,2.4,8.22,2.69,7.85c0,0,0,0,0,0c0.29-0.36,0.79-0.29,1.04-0.16
					C4.14,7.91,4.5,8.31,4.65,8.86c0.19,0.66,0.36,0.91,0.44,1C5,9.76,4.81,9.45,4.63,8.51C4.48,7.75,4,7.2,3.47,6.95
					c-0.32-0.15-1-0.2-1.43,0.35c0,0,0,0,0,0C1.6,7.86,1.79,8.53,2,8.82c0.34,0.48,0.96,0.85,1.71,0.85c0.91,0,1.26,0.12,1.38,0.19
					C4.98,9.8,4.7,9.68,4.05,9.63C3.49,9.58,3.04,9.3,2.75,8.93z"/>
				<polygon class="st2" points="5.14,9.9 5.14,9.91 5.14,9.91 5.14,9.91 5.14,9.9 				"/>
				<polygon class="st2" points="5.14,9.91 5.14,9.91 5.14,9.91 5.14,9.91 5.14,9.91 				"/>
				<polygon class="st2" points="5.14,9.9 5.14,9.9 5.14,9.9 5.14,9.9 5.14,9.9 				"/>
				<polygon class="st2" points="5.14,9.9 5.14,9.9 5.13,9.9 5.13,9.9 5.14,9.91 5.14,9.91 				"/>
				<polygon class="st2" points="5.13,9.9 5.13,9.9 5.13,9.9 				"/>
				<polygon class="st2" points="5.14,9.9 5.14,9.9 5.14,9.9 5.13,9.9 				"/>
				<polygon class="st2" points="5.12,9.89 5.12,9.89 5.12,9.89 				"/>
				<polygon class="st2" points="5.12,9.89 5.12,9.89 5.12,9.89 5.12,9.89 				"/>
				<path class="st3" d="M5.11,9.89C5.11,9.88,5.1,9.87,5.09,9.87C5.1,9.87,5.11,9.88,5.11,9.89z"/>
				<path class="st3" d="M5.12,9.89c0,0-0.01-0.01-0.01-0.01C5.11,9.88,5.12,9.89,5.12,9.89C5.12,9.89,5.12,9.89,5.12,9.89z"/>
				<polygon class="st3" points="5.12,9.89 5.12,9.89 5.12,9.89 				"/>
				<polygon class="st3" points="5.12,9.89 5.12,9.89 5.12,9.89 				"/>
				<polygon class="st3" points="5.14,9.91 5.14,9.91 5.14,9.91 				"/>
				<polygon class="st3" points="5.14,9.91 5.14,9.91 5.14,9.91 				"/>
				<path class="st1" d="M5.12,9.89C5.12,9.89,5.12,9.89,5.12,9.89c0,0-0.01-0.01-0.01-0.01c0,0,0,0,0,0c0,0,0,0,0-0.01l0,0
					c0,0,0,0,0-0.01c-0.08-0.09-0.25-0.34-0.44-1C4.5,8.31,4.14,7.91,3.73,7.69C3.48,7.57,2.98,7.49,2.69,7.85c0,0,0,0,0,0
					C2.4,8.22,2.58,8.71,2.75,8.93c0.28,0.37,0.74,0.65,1.29,0.7C4.7,9.68,4.98,9.8,5.08,9.86c0,0,0.01,0,0.01,0
					C5.1,9.87,5.11,9.88,5.12,9.89C5.12,9.89,5.12,9.89,5.12,9.89C5.12,9.89,5.12,9.89,5.12,9.89C5.12,9.89,5.12,9.89,5.12,9.89z
					 M3.92,8.87C3.8,9.02,3.58,9.05,3.43,8.93C3.28,8.8,3.26,8.58,3.38,8.42C3.5,8.27,3.72,8.24,3.87,8.37
					C4.02,8.49,4.04,8.72,3.92,8.87z"/>
				<polygon class="st4" points="5.12,9.89 5.12,9.89 5.12,9.89 				"/>
				<polygon class="st4" points="5.12,9.89 5.12,9.89 5.12,9.89 				"/>
				<polygon class="st4" points="5.13,9.9 5.13,9.9 5.13,9.9 5.13,9.9 				"/>
				<polygon class="st4" points="5.12,9.89 5.12,9.89 5.12,9.89 				"/>
				<path class="st4" d="M5.13,9.9C5.13,9.9,5.13,9.9,5.13,9.9C5.12,9.89,5.12,9.89,5.12,9.89C5.12,9.89,5.12,9.89,5.13,9.9
					L5.13,9.9C5.13,9.9,5.13,9.9,5.13,9.9C5.13,9.9,5.13,9.89,5.13,9.9C5.13,9.9,5.13,9.9,5.13,9.9C5.14,9.9,5.14,9.9,5.13,9.9
					C5.13,9.9,5.13,9.9,5.13,9.9z"/>
				<polygon class="st4" points="5.13,9.9 5.13,9.9 5.13,9.9 5.13,9.9 				"/>
				<polygon class="st4" points="5.12,9.89 5.12,9.89 5.12,9.89 				"/>
				<polygon class="st4" points="5.14,9.91 5.14,9.91 5.14,9.91 5.14,9.91 5.14,9.91 				"/>
				<polygon class="st4" points="5.14,9.9 5.14,9.91 5.14,9.91 5.14,9.91 				"/>
				<polygon class="st4" points="5.14,9.9 5.14,9.91 5.14,9.9 				"/>
				<polygon class="st4" points="5.14,9.9 5.14,9.91 5.14,9.91 5.14,9.9 				"/>
				<path class="st4" d="M5.13,9.89C5.13,9.89,5.13,9.9,5.13,9.89C5.13,9.9,5.13,9.9,5.13,9.89C5.13,9.9,5.13,9.9,5.13,9.89
					C5.13,9.9,5.13,9.9,5.13,9.89C5.14,9.9,5.14,9.91,5.14,9.91c0,0,0,0,0,0C5.13,9.9,5.13,9.9,5.13,9.89z"/>
				<path class="st0" d="M3.87,8.37C3.72,8.24,3.5,8.27,3.38,8.42c-0.12,0.15-0.1,0.38,0.05,0.5c0.15,0.12,0.37,0.1,0.49-0.06
					C4.04,8.72,4.02,8.49,3.87,8.37z"/>
			</g>
			<g>
				<polygon class="st5" points="10.81,9.85 10.81,9.85 10.81,9.85 				"/>
				<polygon class="st5" points="10.81,9.85 10.81,9.85 10.81,9.85 				"/>
				<path class="st0" d="M15.21,7.52c-0.06,0.09-0.13,0.16-0.22,0.23c-0.03,0.03-0.08,0-0.08-0.04c0-0.56,0.17-1.1,0.5-1.54
					c-0.49,0.22-1.04,0.25-1.57,0.12c-0.04-0.01-0.05-0.06-0.02-0.09C13.91,6.13,14,6.08,14.1,6.04c0.05-0.02,0.04-0.09-0.01-0.09
					c-0.3-0.04-0.66-0.04-0.96,0.07c-0.04,0.02-0.08-0.03-0.06-0.07c0.01-0.02,0.03-0.05,0.05-0.08c0.03-0.04,0-0.1-0.05-0.08
					c-0.52,0.19-0.98,0.52-1.33,0.95c-0.03,0.04-0.09,0.01-0.08-0.04c0,0,0,0,0,0c0.01-0.05-0.05-0.08-0.08-0.04
					c-0.3,0.38-0.48,1.09-0.55,1.4c-0.01,0.05-0.07,0.05-0.09,0.01c-0.02-0.04-0.04-0.08-0.05-0.13c-0.02-0.05-0.08-0.04-0.09,0.01
					c-0.09,0.53,0.36,1.24,0.03,1.91c0,0,0,0,0,0c0,0,0,0,0,0c0.37-0.36,0.29-2.03,0.96-2.74c1.07-1.14,2.31-0.27,2.91-0.36
					c-0.23,0.58,0.28,2.03-1.05,2.82c-0.84,0.5-2.39,0-2.82,0.28c0,0,0,0,0,0c0.72-0.16,1.28,0.47,1.81,0.5
					c0.05,0,0.07-0.06,0.03-0.09c-0.02-0.02-0.05-0.04-0.07-0.06c-0.03-0.03-0.01-0.09,0.04-0.09c0.49,0.06,1.01,0.03,1.41-0.23
					c0.04-0.03,0.02-0.09-0.02-0.09c-0.01,0-0.02,0-0.02,0c-0.05,0-0.06-0.07-0.02-0.09c0.49-0.25,0.92-0.63,1.22-1.1
					c0.03-0.04-0.02-0.09-0.06-0.07c-0.03,0.02-0.06,0.03-0.09,0.03C15.01,8.58,14.97,8.54,15,8.5c0.18-0.27,0.27-0.64,0.3-0.94
					C15.3,7.51,15.24,7.48,15.21,7.52z"/>
				<polygon class="st6" points="10.81,9.85 10.81,9.85 10.81,9.85 				"/>
				<path class="st1" d="M10.83,9.84C10.83,9.84,10.83,9.84,10.83,9.84C10.83,9.84,10.83,9.84,10.83,9.84
					C10.83,9.84,10.83,9.84,10.83,9.84C10.83,9.84,10.83,9.84,10.83,9.84C10.83,9.84,10.83,9.84,10.83,9.84
					C10.83,9.84,10.83,9.84,10.83,9.84C10.82,9.85,10.82,9.85,10.83,9.84C10.82,9.85,10.82,9.85,10.83,9.84
					c0.42-0.28,1.98,0.22,2.81-0.28c1.33-0.79,0.83-2.24,1.05-2.82c-0.6,0.08-1.84-0.78-2.91,0.36C11.11,7.82,11.19,9.49,10.83,9.84
					C10.82,9.85,10.82,9.85,10.83,9.84C10.82,9.84,10.83,9.84,10.83,9.84z M10.84,9.84C10.84,9.83,10.84,9.83,10.84,9.84L10.84,9.84
					C10.84,9.83,10.84,9.83,10.84,9.84C10.84,9.83,10.84,9.83,10.84,9.84c0.01,0,0.01-0.01,0.01-0.01c0.01-0.01,0.01-0.01,0.02-0.02
					c0.09-0.11,0.29-0.42,0.49-1.34c0.16-0.75,0.65-1.29,1.19-1.53c0.33-0.14,1-0.18,1.42,0.38c0,0,0,0,0,0
					c0.42,0.56,0.23,1.22,0.01,1.51C13.63,9.32,13,9.67,12.25,9.65c-0.9-0.03-1.25,0.09-1.37,0.16c0,0-0.01,0-0.01,0
					C10.86,9.82,10.85,9.83,10.84,9.84C10.84,9.83,10.84,9.83,10.84,9.84C10.84,9.84,10.84,9.84,10.84,9.84
					C10.84,9.84,10.84,9.84,10.84,9.84C10.84,9.84,10.84,9.84,10.84,9.84z"/>
				<polygon class="st2" points="10.82,9.85 10.82,9.85 10.81,9.85 10.81,9.85 10.81,9.85 				"/>
				<polygon class="st2" points="10.82,9.85 10.82,9.85 10.82,9.85 10.82,9.85 				"/>
				<polygon class="st2" points="10.82,9.85 10.82,9.85 10.82,9.85 10.82,9.85 10.82,9.85 10.82,9.85 				"/>
				<polygon class="st2" points="10.82,9.85 10.82,9.85 10.82,9.85 10.82,9.85 10.82,9.85 10.82,9.85 10.82,9.85 				"/>
				<polygon class="st2" points="10.82,9.85 10.82,9.85 10.82,9.85 10.82,9.85 				"/>
				<polygon class="st2" points="10.82,9.85 10.82,9.85 10.82,9.85 10.82,9.85 				"/>
				<path class="st2" d="M12.28,7.67c0.25-0.12,0.75-0.19,1.03,0.18c0,0,0,0,0,0c0.28,0.37,0.09,0.85-0.08,1.07
					c-0.29,0.36-0.76,0.63-1.31,0.67c-0.64,0.04-0.92,0.14-1.03,0.21c0.13-0.07,0.47-0.18,1.37-0.16c0.75,0.02,1.37-0.33,1.73-0.81
					c0.22-0.29,0.41-0.95-0.01-1.51c0,0,0,0,0,0c-0.42-0.56-1.09-0.53-1.42-0.38c-0.54,0.24-1.02,0.77-1.19,1.53
					c-0.2,0.91-0.4,1.23-0.49,1.34c0.08-0.09,0.25-0.34,0.45-0.98C11.49,8.27,11.86,7.88,12.28,7.67z"/>
				<path class="st1" d="M10.84,9.83c0.01-0.01,0.02-0.02,0.04-0.02c0,0,0,0,0.01,0c0.11-0.06,0.39-0.17,1.03-0.21
					c0.55-0.03,1.02-0.31,1.31-0.67c0.18-0.22,0.36-0.7,0.08-1.07c0,0,0,0,0,0c-0.28-0.37-0.78-0.31-1.03-0.18
					c-0.41,0.2-0.78,0.6-0.95,1.14c-0.2,0.64-0.37,0.89-0.45,0.98c-0.01,0.01-0.02,0.02-0.02,0.02C10.84,9.83,10.84,9.83,10.84,9.83
					C10.84,9.83,10.84,9.83,10.84,9.83C10.84,9.83,10.84,9.83,10.84,9.83z M12.13,8.36c0.15-0.12,0.37-0.1,0.49,0.06
					c0.12,0.16,0.09,0.38-0.06,0.5c-0.15,0.12-0.37,0.1-0.49-0.06C11.95,8.71,11.98,8.48,12.13,8.36z"/>
				<polygon class="st3" points="10.81,9.85 10.81,9.85 10.81,9.85 				"/>
				<polygon class="st3" points="10.82,9.85 10.82,9.85 10.82,9.85 10.82,9.85 				"/>
				<polygon class="st3" points="10.82,9.85 10.82,9.85 10.82,9.85 				"/>
				<path class="st3" d="M10.84,9.83c0,0,0.01-0.01,0.01-0.01C10.84,9.83,10.84,9.83,10.84,9.83z"/>
				<path class="st3" d="M10.84,9.83c0.01-0.01,0.02-0.02,0.04-0.02C10.86,9.82,10.85,9.83,10.84,9.83
					C10.84,9.83,10.84,9.83,10.84,9.83z"/>
				<polygon class="st3" points="10.84,9.83 10.84,9.83 10.84,9.83 				"/>
				<polygon class="st3" points="10.84,9.83 10.84,9.83 10.84,9.84 10.84,9.84 				"/>
				<polygon class="st3" points="10.84,9.83 10.84,9.83 10.84,9.83 10.84,9.83 10.84,9.83 				"/>
				<polygon class="st4" points="10.83,9.84 10.82,9.84 10.83,9.84 10.83,9.84 				"/>
				<polygon class="st4" points="10.83,9.84 10.83,9.84 10.83,9.84 10.83,9.84 				"/>
				<polygon class="st4" points="10.82,9.85 10.82,9.85 10.82,9.85 				"/>
				<polygon class="st4" points="10.83,9.84 10.83,9.84 10.83,9.84 10.83,9.84 10.82,9.85 10.82,9.85 10.82,9.85 10.82,9.85 				"/>
				<polygon class="st4" points="10.81,9.85 10.82,9.85 10.82,9.85 				"/>
				<polygon class="st4" points="10.81,9.85 10.81,9.85 10.81,9.85 10.82,9.85 				"/>
				<polygon class="st4" points="10.82,9.85 10.82,9.85 10.81,9.85 10.81,9.85 				"/>
				<polygon class="st4" points="10.82,9.85 10.82,9.85 10.82,9.85 10.81,9.85 10.81,9.85 10.82,9.85 				"/>
				<polygon class="st4" points="10.82,9.85 10.82,9.84 10.83,9.84 10.83,9.84 10.82,9.85 10.82,9.85 10.81,9.85 10.81,9.85 
					10.82,9.85 10.82,9.85 10.82,9.85 				"/>
				<polygon class="st4" points="10.83,9.84 10.83,9.84 10.83,9.84 10.83,9.84 				"/>
				<polygon class="st4" points="10.83,9.84 10.83,9.84 10.83,9.84 				"/>
				<polygon class="st4" points="10.84,9.84 10.83,9.84 10.84,9.84 				"/>
				<polygon class="st4" points="10.84,9.83 10.84,9.83 10.84,9.83 				"/>
				<polygon class="st4" points="10.84,9.83 10.84,9.83 10.84,9.83 				"/>
				<path class="st0" d="M12.56,8.92c0.15-0.12,0.18-0.35,0.06-0.5c-0.12-0.15-0.34-0.18-0.49-0.06c-0.15,0.12-0.18,0.35-0.06,0.5
					C12.19,9.02,12.41,9.04,12.56,8.92z"/>
			</g>
			<g>
				<path class="st0" d="M7.04,6.42C7.01,6.44,6.98,6.47,6.95,6.49C6.9,6.52,6.85,6.47,6.86,6.42c0.2-0.56,0.29-1.18,0.11-1.73
					c-0.02-0.05-0.09-0.05-0.11,0c0,0.01-0.01,0.02-0.01,0.03c-0.02,0.06-0.1,0.05-0.11-0.01c-0.15-0.65-0.46-1.25-0.9-1.73
					c-0.04-0.04-0.11,0-0.1,0.06c0.01,0.05,0.01,0.08,0.02,0.11c0,0.05-0.06,0.08-0.1,0.04C5.41,2.92,5.03,2.71,4.7,2.6
					C4.64,2.58,4.6,2.64,4.63,2.69c0.08,0.09,0.14,0.2,0.2,0.32C4.85,3.06,4.82,3.1,4.77,3.09C4.15,2.95,3.59,2.61,3.18,2.1
					c0.12,0.64,0.01,1.3-0.27,1.89c-0.02,0.04-0.08,0.04-0.1,0C2.75,3.87,2.71,3.75,2.69,3.63C2.68,3.57,2.61,3.56,2.58,3.62
					C2.46,3.95,2.37,4.39,2.41,4.77c0.01,0.05-0.05,0.09-0.09,0.05C2.3,4.8,2.27,4.78,2.24,4.74c-0.03-0.05-0.11-0.02-0.1,0.04
					c0.08,0.66,0.33,1.3,0.72,1.82c0.03,0.05-0.01,0.11-0.07,0.09c0,0,0,0-0.01,0c-0.05-0.02-0.1,0.04-0.07,0.09
					c0.35,0.45,1.1,0.85,1.42,1.01c0.05,0.02,0.04,0.1-0.01,0.11c-0.05,0.01-0.1,0.02-0.15,0.03C3.91,7.93,3.9,8.01,3.95,8.04
					c0.57,0.24,1.47-0.1,2.14,0.46c0,0,0,0,0-0.01C5.79,7.96,3.9,7.62,3.28,6.64C2.29,5.07,3.58,3.83,3.64,3.1
					c0.58,0.42,2.33,0.19,2.87,1.98C6.84,6.2,5.89,7.91,6.09,8.49c0,0,0,0,0,0c0,0,0,0,0,0.01c0.01-0.9,0.86-1.4,1.03-2.01
					C7.14,6.43,7.08,6.39,7.04,6.42z"/>
				<path class="st1" d="M6.09,8.48C6.09,8.48,6.09,8.47,6.09,8.48C6.09,8.47,6.09,8.47,6.09,8.48C6.09,8.47,6.09,8.47,6.09,8.48
					C6.09,8.47,6.09,8.47,6.09,8.48C6.09,8.47,6.09,8.47,6.09,8.48C6.08,8.47,6.08,8.47,6.09,8.48C6.08,8.47,6.08,8.47,6.09,8.48
					c0-0.01,0-0.01,0-0.01c0,0,0,0,0,0c0,0,0-0.01-0.01-0.01c0,0,0-0.01-0.01-0.01c0,0,0-0.01-0.01-0.01
					C5.99,8.31,5.7,7.99,4.69,7.49c-0.8-0.39-1.27-1.1-1.39-1.8c-0.08-0.43,0.06-1.23,0.8-1.58c0,0,0,0,0,0
					c0.74-0.36,1.42,0.05,1.69,0.38c0.44,0.54,0.67,1.37,0.45,2.25C5.97,7.83,6.02,8.27,6.07,8.42c0,0,0,0,0,0.01
					c0,0.02,0.01,0.03,0.01,0.04c0,0,0,0,0,0C6.08,8.47,6.08,8.47,6.09,8.48C6.08,8.47,6.08,8.47,6.09,8.48
					C6.09,8.47,6.09,8.47,6.09,8.48C6.09,8.47,6.09,8.47,6.09,8.48C6.09,8.47,6.09,8.47,6.09,8.48C6.09,8.47,6.09,8.47,6.09,8.48
					C6.09,8.47,6.09,8.47,6.09,8.48C6.09,8.48,6.09,8.48,6.09,8.48C6.09,8.48,6.09,8.48,6.09,8.48C6.09,8.48,6.09,8.48,6.09,8.48
					C6.09,8.48,6.09,8.49,6.09,8.48c-0.2-0.57,0.76-2.28,0.42-3.4C5.97,3.29,4.22,3.52,3.64,3.1C3.58,3.83,2.29,5.07,3.28,6.64
					C3.9,7.62,5.79,7.96,6.09,8.49C6.09,8.49,6.09,8.49,6.09,8.48C6.09,8.48,6.09,8.48,6.09,8.48z"/>
				<polygon class="st2" points="6.09,8.47 6.09,8.47 6.09,8.47 				"/>
				<polygon class="st2" points="6.1,8.5 6.1,8.5 6.09,8.49 6.1,8.5 6.1,8.5 6.1,8.5 				"/>
				<polygon class="st2" points="6.1,8.5 6.1,8.5 6.1,8.49 6.1,8.49 				"/>
				<polygon class="st2" points="6.1,8.49 6.09,8.49 6.09,8.49 6.09,8.49 6.09,8.49 6.1,8.5 				"/>
				<polygon class="st2" points="6.09,8.49 6.09,8.49 6.1,8.49 6.1,8.49 6.1,8.49 6.09,8.49 				"/>
				<polygon class="st2" points="6.09,8.48 6.09,8.49 6.09,8.49 6.09,8.49 6.09,8.49 6.09,8.48 				"/>
				<polygon class="st2" points="6.09,8.48 6.09,8.49 6.09,8.49 				"/>
				<path class="st2" d="M5.07,7.63C4.51,7.29,4.16,6.74,4.05,6.2C3.97,5.87,4.03,5.27,4.52,5.03c0,0,0,0,0,0
					C5,4.79,5.5,5.14,5.69,5.41C6.02,5.85,6.21,6.47,6.1,7.13c-0.13,0.8-0.07,1.16-0.03,1.29C6.02,8.27,5.97,7.83,6.24,6.74
					c0.22-0.88-0.01-1.71-0.45-2.25C5.52,4.15,4.83,3.75,4.1,4.11c0,0,0,0,0,0C3.36,4.46,3.22,5.27,3.3,5.69
					c0.12,0.7,0.6,1.41,1.39,1.8C5.7,7.99,5.99,8.31,6.07,8.43C5.99,8.32,5.77,8.05,5.07,7.63z"/>
				<path class="st1" d="M6.08,8.46c0-0.01-0.01-0.02-0.01-0.04c0,0,0,0,0-0.01C6.03,8.29,5.97,7.93,6.1,7.13
					c0.11-0.66-0.08-1.28-0.41-1.72C5.5,5.14,5,4.79,4.52,5.03c0,0,0,0,0,0C4.03,5.27,3.97,5.87,4.05,6.2
					c0.12,0.54,0.46,1.08,1.03,1.42c0.7,0.42,0.92,0.69,0.99,0.81c0,0,0,0.01,0.01,0.01C6.07,8.45,6.08,8.45,6.08,8.46
					C6.08,8.46,6.08,8.46,6.08,8.46C6.08,8.47,6.08,8.47,6.08,8.46C6.08,8.47,6.08,8.47,6.08,8.46C6.08,8.47,6.08,8.47,6.08,8.46
					C6.08,8.47,6.08,8.47,6.08,8.46z M5.32,6.76c-0.2,0.1-0.45,0.01-0.55-0.2C4.67,6.35,4.76,6.1,4.96,6c0.2-0.1,0.45-0.01,0.55,0.2
					C5.61,6.4,5.52,6.66,5.32,6.76z"/>
				<path class="st3" d="M6.07,8.43c0,0.02,0.01,0.03,0.01,0.04C6.08,8.46,6.07,8.44,6.07,8.43z"/>
				<polygon class="st3" points="6.08,8.47 6.08,8.47 6.08,8.47 				"/>
				<polygon class="st3" points="6.08,8.47 6.08,8.47 6.09,8.47 				"/>
				<polygon class="st3" points="6.08,8.47 6.09,8.47 6.09,8.47 				"/>
				<polygon class="st3" points="6.09,8.47 6.09,8.47 6.09,8.47 				"/>
				<polygon class="st3" points="6.09,8.47 6.09,8.47 6.09,8.47 				"/>
				<polygon class="st3" points="6.1,8.5 6.1,8.5 6.1,8.5 				"/>
				<polygon class="st3" points="6.1,8.5 6.1,8.5 6.1,8.5 6.1,8.49 				"/>
				<polygon class="st3" points="6.1,8.5 6.1,8.5 6.1,8.5 				"/>
				<polygon class="st3" points="6.1,8.49 6.1,8.49 6.1,8.5 				"/>
				<polygon class="st4" points="6.08,8.47 6.08,8.47 6.08,8.47 				"/>
				<polygon class="st4" points="6.1,8.5 6.1,8.5 6.1,8.5 				"/>
				<polygon class="st4" points="6.09,8.47 6.09,8.48 6.09,8.47 				"/>
				<polygon class="st4" points="6.1,8.49 6.09,8.49 6.09,8.49 6.09,8.49 				"/>
				<polygon class="st4" points="6.09,8.48 6.09,8.48 6.09,8.48 				"/>
				<path class="st4" d="M6.09,8.47C6.09,8.48,6.09,8.48,6.09,8.47C6.09,8.48,6.09,8.48,6.09,8.47c0,0.01,0.01,0.01,0.01,0.02
					c0,0,0,0,0,0c0,0,0,0,0,0C6.09,8.49,6.09,8.48,6.09,8.47C6.09,8.48,6.09,8.48,6.09,8.47C6.09,8.48,6.09,8.48,6.09,8.47
					C6.09,8.48,6.09,8.48,6.09,8.47z"/>
				<polygon class="st4" points="6.1,8.5 6.1,8.5 6.1,8.5 6.1,8.5 				"/>
				<polygon class="st4" points="6.1,8.5 6.1,8.5 6.1,8.5 6.1,8.5 				"/>
				<polygon class="st4" points="6.1,8.49 6.09,8.49 6.1,8.5 6.1,8.5 				"/>
				<polygon class="st4" points="6.1,8.49 6.1,8.5 6.1,8.5 6.09,8.49 				"/>
				<path class="st4" d="M6.09,8.49C6.09,8.49,6.09,8.49,6.09,8.49C6.09,8.49,6.09,8.49,6.09,8.49C6.09,8.48,6.09,8.48,6.09,8.49
					C6.09,8.48,6.09,8.48,6.09,8.49C6.09,8.48,6.09,8.49,6.09,8.49C6.09,8.49,6.09,8.49,6.09,8.49C6.09,8.49,6.1,8.5,6.09,8.49
					C6.1,8.49,6.1,8.49,6.09,8.49C6.09,8.49,6.09,8.49,6.09,8.49z"/>
				<path class="st0" d="M4.96,6c-0.2,0.1-0.29,0.35-0.19,0.56c0.1,0.21,0.34,0.3,0.55,0.2c0.2-0.1,0.29-0.35,0.19-0.56
					C5.41,5.98,5.17,5.89,4.96,6z"/>
			</g>
			<g>
				<path class="st0" d="M13.85,4.84c0.01-0.06-0.07-0.09-0.1-0.04c-0.03,0.04-0.05,0.06-0.07,0.08c-0.04,0.03-0.1,0-0.09-0.05
					c0.05-0.38-0.03-0.82-0.15-1.16c-0.02-0.06-0.1-0.05-0.11,0.01C13.3,3.8,13.26,3.92,13.2,4.03c-0.02,0.04-0.08,0.04-0.1,0
					c-0.27-0.59-0.37-1.26-0.23-1.89c-0.41,0.5-0.98,0.82-1.61,0.95c-0.05,0.01-0.08-0.04-0.06-0.08c0.06-0.12,0.12-0.23,0.21-0.32
					c0.04-0.04,0-0.11-0.06-0.1c-0.33,0.11-0.73,0.3-0.99,0.58c-0.04,0.04-0.1,0.01-0.1-0.04c0-0.03,0.01-0.07,0.02-0.11
					c0.02-0.06-0.05-0.1-0.09-0.06C9.73,3.43,9.4,4.03,9.24,4.67c-0.01,0.06-0.09,0.06-0.11,0c0,0,0,0,0-0.01
					c-0.02-0.06-0.1-0.06-0.11,0C8.89,5.23,9.06,6.08,9.14,6.44c0.01,0.05-0.05,0.09-0.09,0.06C9.01,6.46,8.97,6.42,8.93,6.39
					c-0.04-0.04-0.11,0-0.09,0.06C9,7.05,9.83,7.57,9.81,8.46c0,0,0,0,0-0.01c0,0,0,0,0,0c0.22-0.57-0.7-2.31-0.34-3.42
					c0.58-1.77,2.32-1.51,2.91-1.91c0.05,0.73,1.3,2,0.28,3.55c-0.64,0.97-2.54,1.26-2.85,1.78c0,0,0,0,0,0.01
					c0.69-0.55,1.6-0.17,2.17-0.42c0.05-0.02,0.05-0.1-0.01-0.11c-0.04-0.01-0.07-0.02-0.11-0.03c-0.05-0.02-0.05-0.09,0-0.11
					c0.55-0.19,1.08-0.5,1.39-0.98c0.03-0.05-0.02-0.11-0.07-0.08c-0.01,0-0.02,0.01-0.03,0.01c-0.05,0.02-0.1-0.04-0.06-0.09
					C13.49,6.13,13.76,5.5,13.85,4.84z"/>
				<path class="st1" d="M9.82,8.45C9.82,8.45,9.82,8.45,9.82,8.45C9.82,8.44,9.82,8.44,9.82,8.45C9.82,8.44,9.82,8.44,9.82,8.45
					c0.01-0.01,0.01-0.01,0.01-0.01c0,0,0,0,0,0c0,0,0,0,0,0C9.83,8.44,9.83,8.44,9.82,8.45C9.82,8.44,9.82,8.44,9.82,8.45
					C9.82,8.44,9.82,8.44,9.82,8.45C9.82,8.45,9.82,8.45,9.82,8.45C9.82,8.45,9.82,8.45,9.82,8.45c0.31-0.52,2.21-0.81,2.85-1.78
					c1.02-1.54-0.23-2.82-0.28-3.55c-0.59,0.4-2.34,0.14-2.91,1.91C9.12,6.14,10.03,7.88,9.82,8.45C9.82,8.45,9.82,8.45,9.82,8.45
					C9.82,8.45,9.82,8.45,9.82,8.45z M9.83,8.43C9.83,8.43,9.83,8.43,9.83,8.43C9.83,8.43,9.83,8.43,9.83,8.43
					C9.83,8.43,9.83,8.43,9.83,8.43C9.83,8.43,9.83,8.43,9.83,8.43C9.83,8.43,9.83,8.43,9.83,8.43c0-0.01,0.01-0.02,0.01-0.03
					c0,0,0,0,0,0c0,0,0-0.01,0-0.01c0-0.01,0-0.01,0.01-0.02c0.05-0.16,0.1-0.6-0.14-1.68c-0.2-0.89,0.05-1.71,0.5-2.24
					c0.28-0.33,0.97-0.71,1.7-0.34c0,0,0,0,0,0c0.73,0.37,0.85,1.18,0.76,1.6c-0.14,0.69-0.63,1.4-1.43,1.77
					c-1,0.46-1.3,0.77-1.39,0.9c0,0,0,0,0,0c0,0,0,0,0,0.01C9.84,8.41,9.83,8.42,9.83,8.43C9.83,8.43,9.83,8.43,9.83,8.43z"/>
				<polygon class="st2" points="9.82,8.46 9.82,8.46 9.82,8.46 9.82,8.46 9.82,8.46 				"/>
				<polygon class="st2" points="9.81,8.46 9.81,8.46 9.81,8.46 9.81,8.46 				"/>
				<polygon class="st2" points="9.81,8.46 9.82,8.46 9.82,8.45 9.82,8.45 9.81,8.46 9.81,8.46 				"/>
				<polygon class="st2" points="9.82,8.45 9.82,8.46 9.82,8.46 9.82,8.46 9.82,8.46 9.82,8.45 				"/>
				<polygon class="st2" points="9.82,8.44 9.82,8.45 9.82,8.45 				"/>
				<polygon class="st2" points="9.82,8.45 9.82,8.45 9.82,8.45 9.82,8.45 				"/>
				<polygon class="st2" points="9.82,8.45 9.82,8.45 9.82,8.45 				"/>
				<path class="st2" d="M9.84,7.09c-0.09-0.67,0.11-1.28,0.44-1.71c0.21-0.26,0.7-0.6,1.18-0.35c0,0,0,0,0,0
					c0.48,0.25,0.52,0.86,0.44,1.18c-0.13,0.54-0.49,1.07-1.06,1.4c-0.69,0.39-0.92,0.66-1,0.78c0.09-0.13,0.39-0.44,1.39-0.9
					c0.81-0.37,1.29-1.07,1.43-1.77c0.09-0.42-0.03-1.23-0.76-1.6c0,0,0,0,0,0c-0.73-0.37-1.42,0.01-1.7,0.34
					c-0.45,0.53-0.7,1.36-0.5,2.24C9.95,7.78,9.9,8.22,9.85,8.38C9.89,8.24,9.95,7.88,9.84,7.09z"/>
				<polygon class="st3" points="9.81,8.46 9.82,8.46 9.82,8.46 				"/>
				<polygon class="st3" points="9.81,8.46 9.81,8.46 9.81,8.46 9.81,8.46 				"/>
				<polygon class="st3" points="9.82,8.46 9.82,8.46 9.82,8.46 				"/>
				<polygon class="st3" points="9.81,8.46 9.81,8.46 9.81,8.46 				"/>
				<path class="st3" d="M9.83,8.43C9.83,8.43,9.83,8.43,9.83,8.43C9.83,8.43,9.83,8.43,9.83,8.43C9.83,8.43,9.83,8.43,9.83,8.43
					C9.83,8.43,9.83,8.43,9.83,8.43C9.83,8.43,9.83,8.43,9.83,8.43C9.83,8.43,9.83,8.43,9.83,8.43c0,0,0.01-0.02,0.02-0.03
					C9.84,8.41,9.83,8.42,9.83,8.43z"/>
				<path class="st3" d="M9.83,8.43c0-0.01,0.01-0.01,0.01-0.02C9.84,8.41,9.83,8.42,9.83,8.43z"/>
				<path class="st1" d="M9.83,8.43c0-0.01,0.01-0.02,0.02-0.03c0,0,0,0,0-0.01c0,0,0,0,0,0c0.08-0.12,0.31-0.38,1-0.78
					c0.57-0.33,0.93-0.86,1.06-1.4c0.08-0.33,0.04-0.94-0.44-1.18c0,0,0,0,0,0c-0.48-0.25-0.98,0.09-1.18,0.35
					C9.95,5.81,9.75,6.43,9.84,7.09c0.11,0.79,0.05,1.14,0.01,1.28c0,0.01,0,0.01-0.01,0.02c0,0,0,0.01,0,0.01c0,0,0,0,0,0
					C9.84,8.41,9.83,8.42,9.83,8.43C9.83,8.43,9.83,8.43,9.83,8.43C9.83,8.43,9.83,8.43,9.83,8.43C9.83,8.43,9.83,8.43,9.83,8.43z
					 M10.46,6.19c0.1-0.21,0.34-0.3,0.55-0.2c0.2,0.1,0.29,0.35,0.19,0.56c-0.1,0.21-0.34,0.3-0.55,0.2
					C10.45,6.65,10.37,6.4,10.46,6.19z"/>
				<polygon class="st4" points="9.82,8.44 9.82,8.44 9.82,8.44 9.82,8.44 9.82,8.44 9.82,8.45 9.82,8.44 9.82,8.44 9.82,8.44 
					9.82,8.44 				"/>
				<polygon class="st4" points="9.82,8.45 9.82,8.46 9.82,8.45 				"/>
				<polygon class="st4" points="9.82,8.44 9.82,8.44 9.82,8.44 9.82,8.44 9.82,8.45 				"/>
				<polygon class="st4" points="9.82,8.45 9.82,8.45 9.82,8.45 9.82,8.45 				"/>
				<path class="st4" d="M9.82,8.45C9.82,8.44,9.82,8.44,9.82,8.45C9.82,8.45,9.82,8.45,9.82,8.45C9.82,8.45,9.82,8.45,9.82,8.45
					C9.82,8.45,9.82,8.45,9.82,8.45C9.82,8.45,9.82,8.45,9.82,8.45z"/>
				<polygon class="st4" points="9.82,8.44 9.82,8.44 9.82,8.44 				"/>
				<polygon class="st4" points="9.82,8.46 9.81,8.46 9.81,8.46 9.81,8.46 9.81,8.46 9.82,8.46 				"/>
				<polygon class="st4" points="9.82,8.46 9.82,8.46 9.82,8.46 9.82,8.46 9.81,8.46 				"/>
				<polygon class="st4" points="9.82,8.46 9.81,8.46 9.81,8.46 9.81,8.46 9.82,8.45 				"/>
				<path class="st4" d="M9.82,8.45C9.82,8.45,9.82,8.45,9.82,8.45C9.82,8.45,9.82,8.45,9.82,8.45C9.82,8.46,9.81,8.46,9.81,8.46
					C9.82,8.46,9.82,8.46,9.82,8.45C9.82,8.45,9.82,8.45,9.82,8.45C9.82,8.44,9.82,8.44,9.82,8.45z"/>
				<polygon class="st4" points="9.82,8.44 9.82,8.44 9.82,8.44 				"/>
				<polygon class="st4" points="9.83,8.44 9.83,8.44 9.83,8.44 				"/>
				<polygon class="st4" points="9.83,8.44 9.82,8.44 9.83,8.44 				"/>
				<polygon class="st4" points="9.83,8.43 9.83,8.43 9.83,8.43 				"/>
				<polygon class="st4" points="9.83,8.43 9.83,8.43 9.83,8.43 9.83,8.43 				"/>
				<path class="st0" d="M10.65,6.75c0.2,0.1,0.45,0.01,0.55-0.2c0.1-0.21,0.01-0.46-0.19-0.56c-0.2-0.1-0.45-0.01-0.55,0.2
					C10.37,6.4,10.45,6.65,10.65,6.75z"/>
			</g>
			<g>
				<path class="st0" d="M10.87,4.94c0.01-0.07-0.08-0.11-0.12-0.05c-0.01,0.01-0.02,0.02-0.02,0.03c-0.05,0.05-0.13,0.01-0.12-0.07
					c0.17-0.79,0.13-1.63-0.11-2.41c-0.02-0.07-0.12-0.06-0.13,0.01c-0.01,0.06-0.03,0.1-0.04,0.13c-0.03,0.06-0.11,0.05-0.13-0.01
					c-0.14-0.45-0.46-0.88-0.77-1.2c-0.05-0.05-0.13,0-0.12,0.07c0.04,0.15,0.06,0.3,0.05,0.47C9.37,1.97,9.3,2,9.25,1.96
					C8.64,1.46,8.2,0.78,8.01,0c-0.2,0.78-0.66,1.44-1.28,1.94c-0.05,0.04-0.11,0-0.11-0.06c0-0.16,0.02-0.32,0.06-0.46
					C6.7,1.35,6.62,1.29,6.57,1.34C6.26,1.65,5.93,2.08,5.78,2.52c-0.02,0.06-0.1,0.07-0.13,0.01C5.64,2.49,5.62,2.45,5.61,2.4
					C5.6,2.32,5.5,2.32,5.48,2.39C5.23,3.16,5.17,4,5.33,4.79c0.01,0.07-0.07,0.12-0.12,0.06c0,0,0,0,0,0
					C5.16,4.8,5.07,4.84,5.09,4.91C5.24,5.61,5.86,6.45,6.13,6.8c0.04,0.05-0.01,0.13-0.07,0.11C6,6.9,5.94,6.88,5.87,6.86
					C5.81,6.84,5.75,6.92,5.8,6.98c0.5,0.58,1.68,0.69,2.13,1.68c0,0,0-0.01,0-0.01c0,0,0-0.01,0-0.01c0,0,0,0,0,0c0,0,0,0,0-0.01v0
					c0,0,0,0,0,0v0c0-0.01,0-0.03,0-0.04c0,0,0,0,0,0c0,0,0-0.01,0-0.01c0-0.03-0.01-0.06-0.02-0.09C7.89,8.46,7.88,8.44,7.87,8.43
					C7.54,7.64,5.94,6.36,5.78,5.07C5.5,2.88,7.4,2.17,7.94,1.44c0.03-0.04,0.08-0.04,0.11,0c0.53,0.75,2.41,1.49,2.1,3.67
					C9.96,6.4,8.35,7.65,8,8.43C7.99,8.45,7.98,8.46,7.96,8.46C7.95,8.5,7.94,8.53,7.94,8.56c0,0,0,0.01,0,0.01
					c0,0.02,0,0.04-0.01,0.06v0c0,0,0,0,0,0.01c0,0,0,0,0,0c0,0,0,0,0,0.01c0,0.01,0,0.02,0,0.02C8.4,7.67,9.6,7.58,10.11,7
					c0.04-0.05,0-0.13-0.07-0.12C10,6.89,9.96,6.9,9.91,6.91C9.84,6.92,9.8,6.84,9.85,6.79C10.36,6.27,10.78,5.64,10.87,4.94z"/>
				<path class="st1" d="M6.29,4.03c0.14-0.51,0.7-1.32,1.7-1.31h0.01c1,0.01,1.55,0.83,1.67,1.35C9.87,4.9,9.7,5.95,9,6.8
					C8.26,7.72,8.03,8.22,7.96,8.46C7.98,8.46,7.99,8.45,8,8.43c0.35-0.78,1.97-2.03,2.15-3.32c0.32-2.18-1.57-2.92-2.1-3.67
					c-0.03-0.04-0.08-0.04-0.11,0C7.4,2.17,5.5,2.88,5.78,5.07c0.16,1.29,1.76,2.57,2.09,3.36c0.01,0.02,0.02,0.03,0.04,0.04
					C7.84,8.22,7.62,7.71,6.9,6.78C6.22,5.91,6.06,4.86,6.29,4.03z"/>
				<polygon class="st2" points="7.93,8.66 7.93,8.66 7.93,8.66 7.93,8.66 7.93,8.66 				"/>
				<polygon class="st2" points="7.93,8.66 7.93,8.66 7.93,8.66 7.93,8.66 				"/>
				<path class="st2" d="M7.93,8.66c0,0,0-0.01,0-0.01C7.93,8.65,7.93,8.66,7.93,8.66C7.93,8.66,7.93,8.66,7.93,8.66
					C7.93,8.66,7.93,8.66,7.93,8.66z"/>
				<path class="st2" d="M7.93,8.64C7.93,8.64,7.93,8.64,7.93,8.64C7.93,8.65,7.93,8.65,7.93,8.64l0,0.01c0,0,0,0.01,0,0.01
					c0,0,0,0,0,0C7.93,8.65,7.93,8.65,7.93,8.64L7.93,8.64z"/>
				<path class="st2" d="M7.96,8.47C7.95,8.5,7.94,8.53,7.94,8.56C7.94,8.53,7.95,8.5,7.96,8.47C7.96,8.46,7.96,8.46,7.96,8.47
					L7.96,8.47z"/>
				<path class="st2" d="M7.91,8.46C7.92,8.5,7.92,8.53,7.93,8.56C7.92,8.53,7.92,8.5,7.91,8.46C7.91,8.46,7.91,8.46,7.91,8.46z"/>
				<path class="st2" d="M7.25,7.14C6.8,6.45,6.7,5.66,6.85,5c0.09-0.4,0.47-1.05,1.13-1.04h0C8.64,3.97,9,4.62,9.08,5.03
					C9.22,5.69,9.1,6.48,8.64,7.15c-0.47,0.69-0.63,1.1-0.68,1.31c0,0,0,0,0,0C8.03,8.22,8.26,7.72,9,6.8
					c0.7-0.85,0.87-1.9,0.66-2.74C9.54,3.55,8.99,2.72,7.99,2.71H7.98c-1-0.01-1.56,0.8-1.7,1.31C6.06,4.86,6.22,5.91,6.9,6.78
					c0.73,0.93,0.95,1.44,1.01,1.68c0,0,0,0,0,0C7.86,8.25,7.71,7.84,7.25,7.14z"/>
				<path class="st1" d="M8.64,7.15C9.1,6.48,9.22,5.69,9.08,5.03C9,4.62,8.64,3.97,7.98,3.96h0C7.31,3.96,6.94,4.6,6.85,5
					C6.7,5.66,6.8,6.45,7.25,7.14c0.46,0.7,0.61,1.11,0.66,1.33c0,0,0.01,0,0.01,0c0.01,0,0.01,0,0.02,0c0,0,0.01,0,0.01,0h0
					C8.01,8.25,8.17,7.84,8.64,7.15z M7.47,5.79c0-0.29,0.22-0.52,0.5-0.52c0.28,0,0.5,0.23,0.5,0.52c0,0.29-0.23,0.52-0.5,0.52
					C7.69,6.31,7.47,6.08,7.47,5.79z"/>
				<polygon class="st3" points="7.93,8.66 7.93,8.66 7.93,8.66 				"/>
				<polygon class="st3" points="7.93,8.66 7.93,8.66 7.93,8.66 7.93,8.66 				"/>
				<polygon class="st3" points="7.93,8.66 7.93,8.65 7.93,8.66 				"/>
				<polygon class="st3" points="7.93,8.62 7.93,8.62 7.93,8.62 				"/>
				<polygon class="st3" points="7.93,8.63 7.93,8.62 7.93,8.63 				"/>
				<path class="st3" d="M7.94,8.57c0,0.02,0,0.04-0.01,0.06C7.93,8.61,7.93,8.59,7.94,8.57z"/>
				<path class="st3" d="M7.93,8.62c0-0.01,0-0.03,0-0.04C7.93,8.59,7.93,8.6,7.93,8.62z"/>
				<path class="st3" d="M7.93,8.62L7.93,8.62c0-0.01,0-0.03,0.01-0.06c0,0,0-0.01,0-0.01c0-0.03,0.01-0.06,0.02-0.09
					c0,0-0.01,0-0.01,0C7.94,8.53,7.93,8.58,7.93,8.61c0-0.03,0-0.08-0.01-0.14c0,0-0.01,0-0.01,0C7.92,8.5,7.92,8.53,7.93,8.56
					c0,0,0,0.01,0,0.01c0,0,0,0,0,0C7.93,8.59,7.93,8.6,7.93,8.62L7.93,8.62C7.93,8.62,7.93,8.62,7.93,8.62L7.93,8.62L7.93,8.62
					L7.93,8.62C7.93,8.63,7.93,8.63,7.93,8.62z"/>
				<polygon class="st4" points="7.93,8.66 7.93,8.66 7.93,8.66 7.93,8.66 				"/>
				<polygon class="st4" points="7.93,8.63 7.93,8.63 7.93,8.63 				"/>
				<polygon class="st4" points="7.93,8.64 7.93,8.63 7.93,8.64 				"/>
				<polygon class="st4" points="7.93,8.63 7.93,8.63 7.93,8.63 7.93,8.63 7.93,8.63 				"/>
				<path class="st4" d="M7.93,8.63c0,0,0,0.01,0,0.01c0,0.01,0,0.01,0,0.01C7.93,8.65,7.93,8.65,7.93,8.63z"/>
				<polygon class="st4" points="7.93,8.66 7.93,8.66 7.93,8.66 				"/>
				<polygon class="st4" points="7.93,8.66 7.93,8.66 7.93,8.66 				"/>
				<path class="st4" d="M7.93,8.66C7.93,8.66,7.93,8.66,7.93,8.66C7.93,8.66,7.93,8.66,7.93,8.66C7.93,8.66,7.93,8.66,7.93,8.66
					C7.93,8.66,7.93,8.66,7.93,8.66L7.93,8.66c0-0.01,0-0.01,0-0.01c0,0,0,0,0,0c0,0,0-0.01,0-0.01c0,0,0,0,0,0
					C7.93,8.65,7.93,8.65,7.93,8.66C7.93,8.66,7.93,8.66,7.93,8.66z"/>
				<path class="st4" d="M7.92,8.47c0.01,0.06,0.01,0.11,0.01,0.14c0-0.03,0-0.08,0.01-0.14C7.94,8.47,7.93,8.47,7.92,8.47z"/>
				<ellipse class="st0" cx="7.97" cy="5.79" rx="0.5" ry="0.52"/>
			</g>
		</g>
	</g>
</g>
</svg>
