<?xml version="1.0" encoding="UTF-8"?><svg id="a" xmlns="http://www.w3.org/2000/svg" viewBox="0 0 35.08 30.45"><defs><style>.b{fill:#ee382a;}.c{fill:#fff;}.d{fill:#6c4826;}.e{fill:#d08543;}.f{fill:#231f20;}</style></defs><g><path class="f" d="M11.94,26.21c-.76,.25-1.75,2.68-3.17,3.22-2.27,.86-3.46-1.23-4.37-1.53,.7-.66,.94-3.07,3.36-3.26,1.51-.12,3.39,1.67,4.18,1.57t0,0s0,0,0,0c-1.14-.28-1.51-1.57-2.23-1.98-.06-.04-.13,.03-.1,.1,.02,.05,.04,.09,.06,.14,.03,.07-.05,.14-.11,.1-.65-.43-1.41-.74-2.15-.67-.07,0-.09,.11-.03,.15,.01,0,.02,.01,.03,.02,.07,.04,.04,.15-.04,.15-.86,0-1.72,.25-2.46,.7-.07,.04-.04,.15,.04,.15,.06,0,.11,0,.15,.01,.07,.01,.08,.11,.02,.14-.43,.26-.8,.72-1.05,1.13-.04,.07,.03,.15,.1,.11,.14-.08,.3-.13,.47-.17,.06-.01,.11,.05,.08,.11-.37,.79-.96,1.44-1.72,1.83,.85,.03,1.65,.37,2.3,.93,.05,.04,.03,.12-.03,.14-.17,.04-.33,.06-.49,.04-.08,0-.11,.1-.05,.14,.39,.27,.91,.53,1.41,.58,.07,0,.09,.1,.04,.14-.03,.02-.07,.05-.13,.07-.07,.03-.06,.14,.02,.15,.86,.09,1.73-.05,2.52-.42,.07-.03,.14,.05,.09,.12,0,0,0,0,0,0-.05,.06,.02,.15,.09,.12,.68-.33,1.4-1.22,1.7-1.6,.04-.06,.14-.02,.13,.05,0,.07,0,.14-.01,.21,0,.08,.09,.12,.14,.05,.47-.69,.31-2.01,1.22-2.73,0,0,0,0-.01,0h0Z"/><path class="b" d="M11.93,26.21s0,0,0,0c0,0,0,0,0,0,0,0,0,0,0,0,0,0,0,0,0,0,0,0,0,0,0,0,0,0,0,0,0,0,0,0,0,0,0,0,0,0,0,0,0,0-.02,0-.04,.01-.06,.02-.2,.08-.69,.39-1.58,1.56-.73,.95-1.77,1.37-2.69,1.33-.56-.02-1.53-.45-1.76-1.54,0,0,0,0,0,0-.23-1.09,.49-1.89,.98-2.16,.82-.43,1.94-.49,2.99,.06,1.28,.68,1.85,.75,2.06,.74,.01,0,.02,0,.03,0,0,0,.01,0,.02,0,0,0,0,0,.01,0,0,0,.01,0,.01,0,0,0,0,0,0,0t0,0s0,0,0,0h0s0,0,0,0c0,0,0,0,.01,0-.79,.1-2.67-1.69-4.18-1.57-2.42,.19-2.66,2.6-3.36,3.26,.9,.3,2.09,2.39,4.37,1.53,1.42-.54,2.41-2.97,3.17-3.22,0,0,0,0-.01,0,0,0,0,0,0,0Z"/><path class="c" d="M10.55,27.32c-.6,.66-1.39,.96-2.1,.95-.44,0-1.19-.26-1.34-.98,0,0,0,0,0,0-.15-.72,.43-1.28,.83-1.47,.65-.31,1.49-.37,2.3-.03,.96,.4,1.42,.44,1.61,.43-.22,.01-.78-.06-2.06-.74-1.05-.55-2.17-.49-2.99-.06-.5,.26-1.22,1.06-.98,2.16,0,0,0,0,0,0,.23,1.09,1.2,1.52,1.76,1.54,.92,.04,1.96-.38,2.69-1.33,.9-1.17,1.38-1.48,1.58-1.56-.18,.07-.59,.3-1.3,1.08Z"/><polygon class="c" points="11.96 26.21 11.96 26.21 11.95 26.21 11.95 26.21 11.96 26.21 11.96 26.21"/><polygon class="c" points="11.95 26.2 11.96 26.2 11.96 26.2 11.95 26.2 11.95 26.2 11.95 26.2"/><path class="c" d="M11.95,26.21s0,0,0,0h0s0,0,0,0h0s0,0,0,0c0,0,0,0,0,0,0,0,0,0,0,0Z"/><path class="c" d="M11.95,26.21s0,0,0,0c0,0,0,0,0,0,0,0,0,0,0,0,0,0,0,0,.01,0,0,0,0,0,0,0,0,0,0,0,0,0Z"/><polygon class="c" points="11.92 26.21 11.92 26.21 11.92 26.21 11.92 26.21 11.92 26.21 11.92 26.21"/><polygon class="c" points="11.93 26.21 11.93 26.21 11.93 26.21 11.93 26.21"/><path class="c" d="M11.93,26.21s0,0,.01,0h0s0,0,0,0c0,0,0,0,0,0h0Z"/><polygon class="c" points="11.93 26.21 11.93 26.21 11.93 26.21 11.93 26.21"/><path class="c" d="M11.95,26.21s0,0,0,0t0,0s0,0-.01,0c0,0,0,0,.01,0Z"/><polygon class="c" points="11.92 26.21 11.92 26.21 11.93 26.21 11.92 26.21"/><polygon class="d" points="11.95 26.2 11.95 26.2 11.95 26.2 11.95 26.2"/><polygon class="d" points="11.96 26.21 11.96 26.21 11.96 26.21 11.96 26.21"/><polygon class="d" points="11.96 26.2 11.96 26.2 11.95 26.2 11.96 26.2"/><path class="b" d="M11.91,26.22s0,0-.01,0c0,0-.01,0-.02,0,0,0-.02,0-.03,0-.19,.01-.66-.03-1.61-.43-.81-.34-1.65-.28-2.3,.03-.4,.19-.98,.74-.83,1.47,0,0,0,0,0,0,.15,.72,.9,.98,1.34,.98,.72,0,1.51-.3,2.1-.95,.71-.78,1.12-1.01,1.3-1.08,.03,0,.05-.02,.06-.02,0,0,0,0,0,0,0,0,0,0,0,0,0,0,0,0,0,0,0,0,0,0-.01,0Zm-2.79,1.19c-.29,.07-.59-.12-.65-.42s.12-.61,.41-.67c.29-.07,.59,.12,.65,.42,.07,.3-.12,.61-.41,.67Z"/><polygon class="e" points="11.92 26.21 11.92 26.21 11.92 26.21 11.92 26.21"/><polygon class="e" points="11.92 26.21 11.92 26.21 11.92 26.21 11.92 26.21"/><polygon class="e" points="11.92 26.21 11.93 26.21 11.93 26.21 11.92 26.21"/><polygon class="e" points="11.93 26.21 11.93 26.21 11.93 26.21 11.93 26.21"/><polygon class="e" points="11.95 26.21 11.95 26.21 11.95 26.21 11.95 26.21"/><polygon class="e" points="11.95 26.21 11.95 26.21 11.95 26.21 11.95 26.21"/><polygon class="e" points="11.95 26.21 11.95 26.21 11.95 26.21 11.95 26.21"/><path class="e" d="M11.94,26.21s0,0,0,0c0,0,0,0,0,0t0,0s0,0-.01,0Z"/><polygon class="e" points="11.93 26.21 11.93 26.21 11.93 26.21 11.93 26.21 11.93 26.21 11.93 26.21"/><polygon class="e" points="11.96 26.21 11.96 26.21 11.96 26.2 11.95 26.21 11.96 26.21"/><polygon class="e" points="11.95 26.2 11.96 26.2 11.96 26.2 11.95 26.2 11.95 26.2"/><polygon class="e" points="11.95 26.21 11.96 26.2 11.95 26.2 11.95 26.21"/><polygon class="e" points="11.95 26.21 11.95 26.21 11.96 26.2 11.95 26.21 11.95 26.21"/><path class="e" d="M11.95,26.21s0,0,0,0c0,0,0,0-.01,0,0,0,0,0,0,0,0,0,0,0,0,0h0s0,0,.01,0c0,0,0,0,.01,0,0,0,0,0,0,0,0,0,0,0,0,0Z"/><path class="f" d="M8.87,26.31c-.29,.07-.48,.37-.41,.67s.36,.49,.65,.42c.29-.07,.48-.37,.41-.67-.07-.3-.36-.49-.65-.42Z"/></g><g><path class="f" d="M30.18,29.38c-.16,0-.32-.01-.49-.06-.06-.02-.08-.1-.03-.14,.67-.54,1.48-.87,2.32-.88-.75-.41-1.33-1.07-1.68-1.87-.03-.06,.03-.12,.09-.11,.17,.04,.32,.1,.46,.18,.07,.04,.14-.04,.1-.11-.24-.42-.6-.88-1.02-1.15-.06-.04-.04-.13,.03-.14,.04,0,.08-.01,.15,0,.08,0,.11-.1,.04-.14-.73-.47-1.58-.73-2.44-.75-.08,0-.1-.11-.03-.15,0,0,0,0,0,0,.07-.04,.04-.15-.03-.15-.75,0-1.78,.47-2.2,.68-.07,.03-.13-.04-.1-.11,.03-.06,.06-.13,.1-.19,.04-.07-.03-.15-.1-.11-.72,.41-1.12,1.67-2.25,1.92,0,0,0,0,0,0,.79,.12,2.71-1.63,4.22-1.47,2.41,.24,2.6,2.66,3.28,3.34-.91,.28-2.15,2.34-4.4,1.43-1.41-.57-2.35-3.03-3.1-3.29h0s0,0,0,0c.91,.76,.7,2.09,1.17,2.79,.04,.06,.13,.03,.14-.05,0-.05,0-.1,0-.15,0-.08,.1-.1,.14-.04,.41,.68,.95,1.3,1.66,1.57,.07,.03,.13-.06,.09-.12,0-.01-.01-.02-.02-.03-.04-.07,.02-.15,.09-.12,.78,.38,1.65,.55,2.51,.48,.08,0,.1-.12,.02-.15-.06-.03-.09-.05-.13-.08-.06-.04-.03-.13,.04-.14,.49-.04,1.02-.29,1.42-.54,.06-.04,.03-.15-.04-.14Z"/><path class="b" d="M23.1,26.1s0,0,0,0c0,0,0,0,0,0,0,0,0,0,0,0,0,0,0,0,0,0h0s0,0,0,0c0,0,0,0,0,0,0,0-.01,0-.01,0,0,0,0,0,0,0,.76,.26,1.69,2.72,3.1,3.29,2.25,.91,3.49-1.15,4.4-1.43-.69-.68-.87-3.09-3.28-3.34-1.51-.15-3.43,1.59-4.22,1.47,0,0,0,0,0,0,0,0,0,0,0,0Zm.02,0h0s0,0,0,0c.02,0,.03,0,.06,0,0,0,0,0,0,0,.21,.02,.78-.04,2.08-.69,1.06-.53,2.18-.44,2.99,0,.49,.27,1.19,1.09,.94,2.18,0,0,0,0,0,0-.25,1.09-1.24,1.49-1.8,1.5-.92,.02-1.95-.43-2.66-1.4-.88-1.21-1.36-1.52-1.56-1.6,0,0,0,0,0,0,0,0-.01,0-.02,0-.01,0-.02,0-.03-.01,0,0,0,0,0,0h0s0,0,0,0c0,0,0,0,0,0,0,0,0,0,0,0Z"/><polygon class="c" points="23.08 26.1 23.08 26.1 23.08 26.1 23.08 26.1 23.08 26.1 23.08 26.1"/><rect class="c" x="23.08" y="26.09" width="0" height="0"/><polygon class="c" points="23.09 26.1 23.09 26.1 23.08 26.1 23.08 26.1 23.08 26.1 23.09 26.1 23.09 26.1"/><path class="c" d="M23.08,26.1s0,0,0,0c0,0,0,0,0,0,0,0,0,0,0,0,0,0,0,0,0,0,0,0,0,0,0,0,0,0,0,0,0,0Z"/><polygon class="c" points="23.1 26.1 23.09 26.1 23.09 26.1 23.1 26.1"/><polygon class="c" points="23.09 26.1 23.09 26.1 23.09 26.1 23.09 26.1 23.09 26.1"/><polygon class="c" points="23.12 26.11 23.12 26.11 23.12 26.11 23.12 26.11"/><path class="c" d="M24.81,25.73c.82-.32,1.65-.24,2.3,.08,.39,.2,.96,.77,.8,1.48,0,0,0,0,0,0-.17,.72-.93,.96-1.36,.95-.72-.02-1.5-.33-2.08-1-.71-.81-1.11-1.05-1.28-1.12,.19,.08,.67,.39,1.56,1.6,.71,.97,1.74,1.41,2.66,1.4,.56-.01,1.54-.41,1.8-1.5,0,0,0,0,0,0,.25-1.09-.44-1.91-.94-2.18-.81-.45-1.93-.54-2.99,0-1.3,.65-1.87,.71-2.08,.69,.19,.02,.65,0,1.63-.39Z"/><polygon class="d" points="23.08 26.1 23.08 26.1 23.08 26.1 23.08 26.1"/><polygon class="d" points="23.08 26.1 23.08 26.1 23.08 26.1 23.08 26.1"/><polygon class="d" points="23.08 26.1 23.08 26.1 23.08 26.1 23.08 26.1"/><polygon class="d" points="23.08 26.1 23.08 26.1 23.08 26.1 23.08 26.1"/><polygon class="d" points="23.12 26.11 23.12 26.11 23.12 26.11 23.12 26.11"/><polygon class="d" points="23.12 26.11 23.12 26.11 23.12 26.11 23.12 26.11"/><path class="d" d="M23.12,26.11s.03,0,.06,0c-.02,0-.04,0-.06,0Z"/><path class="b" d="M23.12,26.11s.02,0,.03,.01c0,0,.01,0,.02,0,0,0,0,0,0,0,.17,.07,.58,.31,1.28,1.12,.58,.67,1.37,.99,2.08,1,.44,0,1.2-.23,1.36-.95,0,0,0,0,0,0,.17-.72-.4-1.29-.8-1.48-.65-.32-1.48-.41-2.3-.08-.97,.38-1.44,.41-1.63,.39,0,0,0,0,0,0-.02,0-.04,0-.06,0,0,0,0,0,0,0,0,0,0,0,0,0Zm2.37,.61c.07-.3,.36-.49,.66-.42,.29,.07,.48,.37,.41,.68-.07,.3-.36,.49-.66,.42-.29-.07-.48-.37-.41-.68Z"/><polygon class="e" points="23.08 26.1 23.08 26.1 23.08 26.1 23.08 26.1 23.08 26.1"/><polygon class="e" points="23.11 26.11 23.11 26.11 23.11 26.1 23.11 26.1 23.11 26.11"/><polygon class="e" points="23.11 26.11 23.11 26.11 23.11 26.11 23.11 26.11"/><polygon class="e" points="23.08 26.1 23.09 26.1 23.08 26.1 23.08 26.1"/><path class="e" d="M23.11,26.1s0,0,0,0c0,0,0,0,0,0t0,0s0,0,0,0c0,0-.01,0-.01,0,0,0,0,0,0,0,0,0,0,0,0,0,0,0,0,0,.01,0Z"/><polygon class="e" points="23.08 26.1 23.08 26.1 23.08 26.1 23.08 26.1 23.08 26.1"/><polygon class="e" points="23.08 26.1 23.08 26.1 23.08 26.1 23.08 26.1 23.08 26.1 23.08 26.1"/><polygon class="e" points="23.08 26.1 23.08 26.1 23.08 26.1 23.09 26.1 23.08 26.1"/><polygon class="e" points="23.08 26.1 23.08 26.1 23.08 26.1 23.08 26.1 23.08 26.1 23.08 26.1"/><path class="e" d="M23.1,26.1s0,0,0,0c0,0,0,0,0,0,0,0,0,0,0,0,0,0,0,0-.01,0,0,0,0,0,0,0,0,0,0,0,0,0,0,0,0,0,.01,0t0,0Z"/><polygon class="e" points="23.11 26.11 23.11 26.11 23.11 26.11 23.11 26.11"/><polygon class="e" points="23.12 26.11 23.12 26.11 23.12 26.11 23.12 26.11 23.12 26.11"/><polygon class="e" points="23.13 26.11 23.12 26.11 23.12 26.11 23.12 26.11 23.13 26.11"/><path class="f" d="M25.9,27.39c.29,.07,.59-.12,.66-.42,.07-.3-.12-.61-.41-.68-.29-.07-.59,.12-.66,.42-.07,.3,.12,.61,.41,.68Z"/></g><g><g><path class="f" d="M10.76,24.24c-.96-.14-3.28,1.98-5.1,1.79-2.92-.29-3.15-3.22-3.98-4.03,1.1-.34,2.59-2.84,5.32-1.74,1.71,.69,2.85,3.66,3.76,3.98h0s0,0,.01,0c-1.1-.92-.85-2.53-1.43-3.37-.05-.07-.16-.04-.16,.05,0,.06,0,.12,0,.18,0,.09-.12,.12-.17,.04-.49-.82-1.16-1.57-2.01-1.89-.09-.03-.16,.07-.1,.15,0,.01,.02,.02,.03,.04,.05,.08-.03,.18-.11,.14-.94-.46-2-.66-3.04-.57-.09,0-.12,.14-.03,.18,.07,.03,.11,.06,.15,.09,.07,.05,.04,.16-.05,.17-.6,.05-1.24,.35-1.72,.66-.08,.05-.04,.18,.05,.17,.2,0,.39,.01,.6,.07,.07,.02,.1,.12,.04,.17-.81,.66-1.79,1.05-2.81,1.07,.91,.49,1.61,1.29,2.04,2.26,.03,.07-.03,.15-.1,.13-.2-.05-.39-.12-.56-.22-.08-.05-.17,.05-.12,.13,.29,.5,.73,1.07,1.24,1.39,.07,.05,.05,.16-.03,.17-.05,0-.1,.01-.18,.01-.09,0-.13,.12-.05,.17,.89,.56,1.92,.88,2.96,.91,.09,0,.12,.13,.04,.18,0,0,0,0,0,0-.08,.05-.05,.18,.04,.18,.91,0,2.15-.57,2.66-.83,.08-.04,.16,.05,.12,.13-.04,.07-.08,.15-.12,.23-.05,.08,.04,.18,.12,.13,.87-.5,1.36-2.02,2.72-2.32,0,0,0,0,0,0,0,0,0,0,0,0Z"/><path class="b" d="M10.74,24.23s0,0,0,0c0,0,0,0,0,0,0,0,0,0,0,0,0,0,0,0,0,0-.02,0-.04,0-.06,0,0,0-.01,0-.02,0-.26-.02-.95,.05-2.52,.84-1.28,.64-2.63,.54-3.61,0-.6-.33-1.44-1.32-1.14-2.64,0,0,0,0,0,0,.31-1.32,1.49-1.8,2.17-1.82,1.11-.02,2.36,.51,3.22,1.68,1.05,1.43,1.63,1.81,1.87,1.92,0,0,.01,0,.02,0,0,0,0,0,0,0,.01,0,.02,0,.03,.01,0,0,0,0,.01,0,0,0,.01,0,.02,0,0,0,0,0,0,0,0,0,0,0,0,0,0,0,0,0,0,0,0,0,0,0,0,0,0,0,0,0,0,0,0,0,0,0,.01,0,0,0,0,0,0,0-.92-.32-2.05-3.29-3.76-3.98-2.73-1.1-4.22,1.4-5.32,1.74,.83,.82,1.06,3.74,3.98,4.03,1.83,.18,4.15-1.94,5.1-1.79,0,0,0,0,0,0,0,0,0,0-.01,0Z"/><path class="c" d="M8.68,24.69c-.99,.39-2,.29-2.78-.1-.48-.24-1.17-.92-.97-1.79,0,0,0,0,0,0,.2-.87,1.12-1.16,1.65-1.15,.87,.02,1.82,.4,2.52,1.21,.83,.95,1.32,1.25,1.54,1.34-.24-.11-.82-.49-1.87-1.92-.86-1.17-2.11-1.71-3.22-1.68-.68,.01-1.87,.5-2.17,1.82,0,0,0,0,0,0-.31,1.32,.54,2.31,1.14,2.64,.98,.54,2.33,.64,3.61,0,1.57-.79,2.26-.86,2.52-.84-.23-.02-.79,.01-1.97,.48Z"/><polygon class="c" points="10.78 24.24 10.77 24.24 10.78 24.24 10.78 24.24 10.78 24.24 10.78 24.24"/><polygon class="c" points="10.78 24.24 10.78 24.24 10.78 24.24 10.78 24.24 10.78 24.24"/><polygon class="c" points="10.78 24.24 10.77 24.24 10.77 24.24 10.77 24.24 10.77 24.24 10.78 24.24 10.78 24.24"/><path class="c" d="M10.77,24.23s0,0,0,0c0,0,0,0,0,0h0s0,0,0,0c0,0,0,0,0,0,0,0,0,0-.01,0,0,0,0,0,0,0Z"/><polygon class="c" points="10.77 24.23 10.77 24.23 10.77 24.23 10.77 24.23"/><path class="b" d="M10.73,24.23s0,0,0,0c0,0,0,0,0,0,0,0,0,0-.01,0,0,0,0,0-.01,0-.01,0-.02,0-.03-.01,0,0,0,0,0,0,0,0,0,0-.02,0-.22-.09-.7-.39-1.54-1.34-.71-.81-1.65-1.19-2.52-1.21-.53-.01-1.45,.28-1.65,1.15,0,0,0,0,0,0-.2,.87,.49,1.56,.97,1.79,.78,.39,1.8,.49,2.78,.1,1.17-.47,1.74-.5,1.97-.48,0,0,.01,0,.02,0,.03,0,.05,0,.06,0,0,0,0,0,0,0,0,0,0,0,0,0,0,0,0,0,0,0Z"/><path class="d" d="M10.72,24.23s-.04,0-.06,0c.03,0,.05,0,.06,0Z"/><path class="d" d="M10.73,24.23s-.01,0-.02,0c0,0,0,0,.01,0,0,0,0,0,0,0Z"/><polygon class="d" points="10.78 24.24 10.78 24.24 10.78 24.24 10.78 24.24 10.78 24.24 10.78 24.24"/><polygon class="d" points="10.78 24.24 10.78 24.24 10.78 24.24 10.78 24.24"/><polygon class="d" points="10.78 24.24 10.78 24.24 10.78 24.24 10.78 24.24"/><polygon class="e" points="10.74 24.23 10.75 24.23 10.75 24.23 10.74 24.23 10.74 24.23"/><polygon class="e" points="10.73 24.23 10.74 24.23 10.74 24.23 10.73 24.23"/><polygon class="e" points="10.74 24.23 10.74 24.23 10.74 24.23 10.74 24.23"/><polygon class="e" points="10.75 24.23 10.74 24.23 10.75 24.23 10.75 24.23"/><polygon class="e" points="10.74 24.23 10.73 24.23 10.74 24.23 10.74 24.23"/><polygon class="e" points="10.74 24.23 10.74 24.23 10.74 24.23 10.74 24.23"/><polygon class="e" points="10.75 24.23 10.74 24.23 10.74 24.23 10.74 24.23 10.75 24.23"/><polygon class="e" points="10.75 24.23 10.75 24.23 10.75 24.23 10.75 24.23 10.75 24.23"/><path class="e" d="M10.75,24.23s.01,0,.02,0c0,0,0,0,0,0,0,0,0,0,0,0,0,0,0,0-.01,0Z"/><path class="e" d="M10.75,24.23s0,0,0,0c0,0,0,0,0,0,0,0,0,0,0,0,0,0-.01,0-.02,0,0,0,0,0,0,0Z"/><polygon class="e" points="10.74 24.23 10.74 24.23 10.74 24.23 10.74 24.23"/><polygon class="e" points="10.74 24.23 10.74 24.23 10.74 24.23 10.74 24.23"/><polygon class="e" points="10.74 24.23 10.75 24.23 10.75 24.23 10.74 24.23"/><polygon class="e" points="10.78 24.24 10.78 24.24 10.78 24.24 10.78 24.24 10.78 24.24"/><polygon class="e" points="10.78 24.24 10.78 24.24 10.78 24.24 10.78 24.24 10.78 24.24"/><path class="e" d="M10.77,24.24h0s0,0,0,0c0,0,0,0,0,0,0,0,0,0-.01,0,0,0,0,0,0,0Z"/><path class="e" d="M10.77,24.24s0,0,0,0c0,0,0,0,.01,0,0,0,0,0,0,0h0s0,0,0,0h0Z"/><path class="e" d="M10.77,24.23s-.01,0-.02,0h0s.02,0,.02,0c0,0,0,0,.01,0,0,0,0,0-.01,0,0,0,0,0,0,0Z"/></g><ellipse class="f" cx="7.21" cy="23.35" rx=".66" ry=".68"/></g><g><path class="f" d="M35.08,21.71c-1.03-.04-1.99-.45-2.79-1.13-.06-.05-.04-.15,.04-.17,.21-.05,.4-.07,.6-.05,.09,0,.13-.12,.06-.17-.47-.32-1.11-.64-1.7-.7-.08,0-.11-.12-.04-.17,.04-.03,.09-.06,.15-.09,.09-.04,.07-.17-.02-.18-1.04-.11-2.1,.06-3.05,.5-.09,.04-.17-.06-.11-.14,0,0,0,0,0,0,.06-.08-.03-.18-.11-.14-.82,.4-1.7,1.47-2.05,1.93-.05,.07-.17,.03-.16-.06,0-.08,0-.17,.01-.26,0-.1-.11-.14-.17-.06-.57,.83-.38,2.43-1.48,3.31,0,0,0,0,.01,0,.92-.29,2.13-3.24,3.85-3.89,2.75-1.04,4.19,1.5,5.28,1.87-.85,.8-1.14,3.72-4.07,3.94-1.83,.14-4.1-2.03-5.06-1.91,0,0,0,0-.01,0,1.37,.34,1.83,1.91,2.7,2.4,.08,.04,.16-.04,.13-.12-.02-.05-.05-.11-.07-.17-.03-.08,.06-.16,.13-.12,.79,.52,1.7,.9,2.6,.81,.09,0,.11-.13,.03-.18-.01,0-.03-.01-.04-.02-.08-.05-.05-.18,.04-.18,1.04,0,2.08-.29,2.98-.84,.08-.05,.04-.18-.05-.18-.07,0-.13,0-.18-.02-.08-.02-.1-.13-.03-.17,.52-.31,.97-.87,1.27-1.36,.05-.08-.04-.18-.12-.13-.17,.1-.36,.16-.57,.21-.07,.02-.14-.06-.1-.13,.45-.96,1.17-1.74,2.09-2.21Z"/><path class="b" d="M24.27,24.1s0,0,0,0c0,0,0,0,0,0,0,0,0,0,0,0,0,0,0,0,0,0,0,0,0,0,0,0s0,0,0,0c0,0,0,0,0,0,0,0,0,0,0,0s0,0,0,0h0s0,0,0,0c0,0,.01,0,.02,0,0,0,0,0,0,0,0,0,.02,0,.02,0,0,0,.02,0,.03-.01,.24-.1,.83-.47,1.92-1.88,.89-1.15,2.15-1.66,3.26-1.61,.68,.03,1.86,.55,2.13,1.87,0,0,0,0,0,0,.28,1.32-.59,2.29-1.2,2.61-.99,.52-2.35,.59-3.61-.08-1.63-.87-2.31-.92-2.53-.9,0,0,0,0-.01,0,0,0,0,0-.01,0,0,0,0,0-.01,0,0,0,0,0-.01,0,0,0,0,0,0,0,0,0,0,0,0,0,0,0,0,0,0,0,0,0-.01,0-.02,0,0,0,0,0,0,0,.96-.12,3.23,2.05,5.06,1.91,2.92-.22,3.22-3.14,4.07-3.94-1.09-.37-2.53-2.9-5.28-1.87-1.72,.65-2.93,3.59-3.85,3.89,0,0,0,0,0,0,0,0,0,0,0,0Z"/><polygon class="c" points="24.24 24.11 24.24 24.11 24.24 24.11 24.24 24.11"/><path class="c" d="M24.25,24.11h0s0,0,0,0c0,0,0,0,0,0Z"/><polygon class="c" points="24.25 24.11 24.25 24.11 24.24 24.11 24.24 24.11 24.25 24.11 24.25 24.11 24.25 24.11"/><path class="c" d="M24.26,24.11s0,0,0,0c0,0,0,0,0,0,0,0,0,0,0,0,0,0,0,0,.01,0,0,0,0,0,0,0Z"/><path class="c" d="M24.25,24.11s0,0,0,0c0,0,0,0,0,0,0,0,0,0,0,0,0,0,0,0-.01,0,0,0,0,0,0,0h0Z"/><path class="c" d="M24.26,24.11s0,0,0,0c0,0,0,0,0,0,0,0,0,0-.01,0Z"/><polygon class="c" points="24.26 24.11 24.27 24.1 24.26 24.11 24.26 24.11 24.26 24.11"/><polygon class="c" points="24.29 24.1 24.28 24.1 24.29 24.1 24.29 24.1"/><path class="c" d="M24.29,24.1h0s0,0,0,0c0,0,0,0-.01,0,0,0,.01,0,.02,0Z"/><polygon class="c" points="24.3 24.1 24.3 24.1 24.29 24.1 24.29 24.1 24.29 24.1 24.29 24.1 24.3 24.1"/><polygon class="c" points="24.29 24.1 24.29 24.1 24.29 24.1 24.29 24.1"/><path class="c" d="M25.95,22.77c.72-.79,1.68-1.15,2.55-1.15,.53,0,1.44,.31,1.62,1.19,0,0,0,0,0,0,.18,.87-.52,1.54-1.01,1.77-.79,.37-1.81,.45-2.78,.03-1.23-.52-1.79-.54-1.99-.52,.23-.02,.9,.03,2.53,.9,1.27,.67,2.62,.6,3.61,.08,.61-.32,1.47-1.29,1.2-2.61,0,0,0,0,0,0-.28-1.32-1.45-1.84-2.13-1.87-1.11-.05-2.37,.46-3.26,1.61-1.08,1.41-1.67,1.78-1.92,1.88,.22-.08,.71-.37,1.57-1.31Z"/><polygon class="d" points="24.25 24.11 24.24 24.11 24.24 24.11 24.25 24.11 24.25 24.11"/><polygon class="d" points="24.24 24.11 24.24 24.11 24.25 24.11 24.24 24.11"/><polygon class="d" points="24.25 24.11 24.25 24.11 24.25 24.11 24.25 24.11"/><polygon class="d" points="24.29 24.1 24.28 24.1 24.29 24.1 24.29 24.1"/><polygon class="d" points="24.29 24.1 24.29 24.1 24.29 24.1 24.29 24.1"/><polygon class="d" points="24.3 24.1 24.29 24.1 24.29 24.1 24.3 24.1"/><polygon class="d" points="24.3 24.1 24.3 24.1 24.3 24.1 24.3 24.1"/><path class="d" d="M24.31,24.09s-.01,0-.02,0c0,0,0,0,0,0,0,0,0,0,.01,0Z"/><path class="b" d="M24.3,24.1s0,0,.01,0c0,0,0,0,.01,0,0,0,0,0,.01,0,0,0,0,0,.01,0,.2-.02,.76,0,1.99,.52,.98,.41,1.99,.34,2.78-.03,.48-.23,1.19-.9,1.01-1.77,0,0,0,0,0,0-.18-.87-1.09-1.19-1.62-1.19-.87,0-1.82,.36-2.55,1.15-.86,.94-1.35,1.22-1.57,1.31-.01,0-.02,0-.03,.01,0,0-.02,0-.02,0,0,0,0,0,0,0,0,0,0,0-.01,0,0,0,0,0,0,0,0,0,0,0-.01,0t0,0h0Zm3.39-1.44c.36-.08,.71,.15,.79,.52,.08,.37-.14,.73-.5,.82-.36,.08-.71-.15-.79-.52-.08-.37,.14-.73,.5-.82Z"/><polygon class="e" points="24.24 24.11 24.24 24.11 24.24 24.11 24.24 24.11"/><polygon class="e" points="24.24 24.11 24.24 24.11 24.24 24.11 24.24 24.11"/><path class="e" d="M24.28,24.1s0,0,0,0c0,0,0,0,0,0,0,0-.01,0-.02,0,0,0,0,0,.01,0,0,0,0,0,.01,0Z"/><polygon class="e" points="24.27 24.1 24.26 24.11 24.27 24.1 24.27 24.1"/><polygon class="e" points="24.25 24.11 24.24 24.11 24.24 24.11 24.25 24.11"/><polygon class="e" points="24.24 24.11 24.25 24.11 24.25 24.11 24.24 24.11 24.24 24.11"/><path class="e" d="M24.25,24.11s0,0,0,0c0,0,0,0,0,0,0,0,0,0,.01,0,0,0,0,0,0,0Z"/><path class="e" d="M24.25,24.11h0s0,0,0,0c0,0,0,0-.01,0,0,0,0,0,0,0Z"/><path class="e" d="M24.27,24.1s0,0,0,0c0,0,0,0,0,0,0,0,0,0,0,0,0,0,0,0,0,0,0,0,0,0-.01,0,0,0,0,0,.01,0,0,0,0,0,0,0,0,0,.01,0,.02,0,0,0,0,0,0,0Z"/><polygon class="e" points="24.28 24.1 24.28 24.1 24.29 24.1 24.28 24.1"/><polygon class="e" points="24.3 24.1 24.3 24.1 24.29 24.1 24.3 24.1"/><polygon class="e" points="24.3 24.1 24.3 24.1 24.31 24.1 24.3 24.1"/><path class="f" d="M27.98,23.99c.36-.08,.58-.45,.5-.82-.08-.37-.43-.6-.79-.52-.36,.08-.58,.45-.5,.82,.08,.37,.43,.6,.79,.52Z"/></g><g><path class="f" d="M11.25,21.71c-.92-.64-4.36,.36-6.16-.76-2.89-1.8-1.71-4.96-2.17-6.23,1.31,.21,4.07-1.62,6.36,.93,1.44,1.6,1.18,5.27,1.98,6.06,0,0,0,0,0,0,0,0,0,0,0,0-.69-1.51,.35-3.06,.15-4.23-.02-.1-.15-.12-.2-.03-.03,.06-.06,.12-.1,.19-.05,.09-.19,.06-.2-.04-.11-1.11-.44-2.23-1.16-3-.07-.08-.2,0-.18,.1,0,.02,0,.03,0,.05,.02,.11-.12,.17-.19,.09-.75-.96-1.76-1.71-2.88-2.15-.1-.04-.19,.09-.12,.17,.06,.07,.09,.12,.11,.17,.04,.09-.04,.19-.13,.15-.65-.26-1.45-.28-2.1-.2-.11,.01-.13,.16-.03,.21,.21,.09,.4,.22,.59,.38,.07,.06,.04,.17-.04,.19-1.16,.27-2.36,.17-3.43-.34,.71,.98,1.04,2.17,1.02,3.39,0,.09-.1,.14-.17,.08-.19-.16-.35-.33-.48-.52-.06-.09-.2-.04-.19,.07,.06,.67,.24,1.48,.61,2.08,.05,.08-.02,.19-.12,.16-.05-.01-.11-.04-.19-.08-.1-.05-.2,.06-.14,.15,.65,1.04,1.56,1.9,2.63,2.46,.1,.05,.06,.2-.04,.2,0,0,0,0,0,0-.11,0-.14,.16-.04,.21,.94,.47,2.5,.52,3.16,.51,.1,0,.14,.13,.06,.19-.07,.06-.15,.12-.24,.17-.09,.06-.04,.21,.07,.2,1.14-.07,2.39-1.4,3.95-1.01,0,0,0,0-.01-.01Z"/><path class="b" d="M11.25,21.7s0,0,0,0h0s0,0,0,0c0,0,0,0,0,0,0,0,0,0-.01,0-.02-.01-.03-.03-.06-.04,0,0-.01,0-.02-.01-.26-.15-1.01-.43-3.01-.42-1.64,0-2.99-.8-3.75-1.86-.46-.65-.86-2.11,.1-3.32,0,0,0,0,0,0,.95-1.21,2.43-1.1,3.14-.77,1.16,.55,2.2,1.75,2.53,3.4,.4,2.06,.82,2.75,1.02,2.97,0,0,0,0,.01,.01h0s0,.01,.01,.02c0,0,0,0,.01,0,0,0,.02,.02,.03,.02h0s0,0,0,0c0,0,0,0,0,0,0,0,0,0,0,0h0s0,0,0,0c0,0,0,0,0,0,0,0,.01,.01,.02,.02,0,0,0,0,0,0-.8-.8-.54-4.47-1.98-6.06-2.3-2.55-5.06-.72-6.36-.93,.47,1.28-.71,4.43,2.17,6.23,1.81,1.13,5.24,.12,6.16,.76,0,0,0,0,0,0,0,0,0,0,0,0Z"/><path class="c" d="M6.03,19.58c-.38-.49-.76-1.56-.13-2.36,0,0,0,0,0,0,.63-.8,1.72-.63,2.27-.34,.89,.46,1.69,1.35,2.03,2.55,.41,1.45,.78,2,.96,2.19-.2-.22-.62-.91-1.02-2.97-.33-1.66-1.36-2.86-2.53-3.4-.71-.33-2.18-.44-3.14,.77,0,0,0,0,0,0-.95,1.21-.56,2.67-.1,3.32,.75,1.06,2.11,1.87,3.75,1.86,2-.01,2.75,.27,3.01,.42-.23-.14-.83-.39-2.27-.51-1.21-.1-2.22-.72-2.84-1.53Z"/><path class="c" d="M11.27,21.72s0,0,0,0c0,0,0,0,0,0h0s0,0,0,0c0,0,0,0,0,0Z"/><polygon class="c" points="11.27 21.72 11.26 21.72 11.27 21.72 11.27 21.72 11.27 21.72 11.27 21.72"/><polygon class="c" points="11.26 21.71 11.26 21.71 11.27 21.72 11.27 21.71 11.26 21.71 11.26 21.71"/><path class="c" d="M11.26,21.72s0,0,0,0c0,0,0,0,0,0,0,0,0,0,0,0,0,0,0,0,.01,.01,0,0,0,0,0,0,0,0,0,0,0,0Z"/><path class="c" d="M11.25,21.71s0,0,0,0c0,0,0,0-.01,0,0,0,0,0,0,0Z"/><polygon class="c" points="11.26 21.71 11.26 21.71 11.26 21.71 11.25 21.7 11.26 21.71"/><polygon class="c" points="11.23 21.68 11.23 21.69 11.23 21.68 11.23 21.68"/><polygon class="c" points="11.23 21.69 11.23 21.69 11.23 21.69 11.23 21.69 11.23 21.69"/><path class="d" d="M11.21,21.67s-.03-.03-.06-.04c.02,.01,.04,.03,.06,.04Z"/><path class="d" d="M11.22,21.68s-.02-.02-.03-.02c0,0,.02,.02,.03,.02,0,0,0,0,0,0Z"/><polygon class="d" points="11.23 21.68 11.22 21.68 11.22 21.68 11.23 21.68"/><polygon class="d" points="11.23 21.68 11.23 21.69 11.23 21.68 11.23 21.68"/><polygon class="d" points="11.27 21.72 11.27 21.72 11.27 21.72 11.27 21.72"/><polygon class="d" points="11.27 21.72 11.27 21.72 11.27 21.72 11.27 21.72"/><path class="b" d="M11.23,21.68s0,0,0,0c0,0-.02-.01-.03-.02,0,0,0,0-.01,0,0,0,0,0-.01-.01h0s0-.01-.01-.02c-.18-.2-.54-.74-.96-2.19-.34-1.2-1.14-2.09-2.03-2.55-.55-.28-1.64-.45-2.27,.34,0,0,0,0,0,0-.63,.8-.25,1.87,.13,2.36,.62,.81,1.63,1.43,2.84,1.53,1.44,.12,2.04,.37,2.27,.51,0,0,.01,0,.02,.01,.02,.01,.04,.03,.06,.04,0,0,0,0,.01,0,0,0,0,0,0,0,0,0,0,0,0,0Zm-2.63-2.23c-.26,.34-.74,.39-1.07,.12-.33-.27-.38-.76-.12-1.1,.26-.34,.74-.39,1.07-.12,.33,.27,.38,.76,.12,1.1Z"/><polygon class="e" points="11.23 21.69 11.23 21.69 11.23 21.69 11.23 21.69"/><polygon class="e" points="11.23 21.68 11.23 21.69 11.23 21.69 11.23 21.68"/><polygon class="e" points="11.25 21.7 11.24 21.7 11.24 21.7 11.24 21.69 11.25 21.7"/><polygon class="e" points="11.23 21.69 11.23 21.69 11.23 21.69 11.23 21.69"/><path class="e" d="M11.25,21.7s-.01,0-.02-.02c0,0,0,0,0,0,0,0,0,0,0,0h0s0,0,0,0c0,0,0,0,0,0,.01,0,.02,.01,.02,.02,0,0,0,0,0,0,0,0,0,0,0,0Z"/><path class="e" d="M11.25,21.7s0,0,.01,0c0,0,0,0-.01-.01,0,0,0,0,0,0,0,0,0,0,0,0Z"/><polygon class="e" points="11.23 21.69 11.23 21.69 11.23 21.69 11.23 21.69"/><polygon class="e" points="11.27 21.72 11.27 21.72 11.27 21.72 11.27 21.72 11.27 21.72 11.27 21.72"/><polygon class="e" points="11.27 21.72 11.27 21.72 11.27 21.72 11.27 21.72 11.27 21.72"/><polygon class="e" points="11.26 21.71 11.27 21.72 11.27 21.72 11.26 21.71"/><path class="e" d="M11.26,21.72s0,0,0,0c0,0,0,0,0,0,0,0,0,0-.01,0,0,0,0,0,0,0Z"/><path class="e" d="M11.24,21.69s0,0,0,0c0,0,0,0,0,0,0,0,0,0,.01,.01,0,0,0,0,0,0,0,0,0,0,.01,0,0,0,0,0,0,0,0,0-.01,0-.02-.02Z"/><path class="f" d="M8.48,18.34c-.33-.27-.81-.22-1.07,.12-.26,.34-.21,.83,.12,1.1,.33,.27,.81,.22,1.07-.12,.26-.34,.21-.83-.12-1.1Z"/></g><g><path class="f" d="M33.35,16.49c-.13,.19-.3,.35-.49,.5-.07,.06-.17,0-.17-.09,0-1.22,.37-2.41,1.09-3.37-1.08,.49-2.29,.56-3.44,.26-.09-.02-.11-.14-.04-.19,.19-.15,.39-.28,.6-.36,.1-.04,.08-.19-.03-.21-.65-.09-1.46-.09-2.11,.15-.09,.03-.17-.07-.13-.15,.03-.05,.06-.1,.12-.17,.07-.08-.01-.21-.11-.18-1.13,.42-2.15,1.14-2.92,2.09-.07,.09-.2,.02-.18-.09,0,0,0,0,0,0,.02-.11-.12-.18-.18-.09-.66,.84-1.05,2.4-1.2,3.06-.02,.1-.16,.12-.2,.02-.04-.09-.08-.18-.11-.28-.04-.1-.18-.09-.2,.02-.19,1.16,.79,2.71,.07,4.19,0,0,0,0,0,0,0,0,0,0,0,0,.81-.78,.64-4.45,2.11-6.02,2.35-2.49,5.07-.6,6.38-.78-.49,1.26,.61,4.45-2.31,6.18-1.83,1.09-5.25,0-6.18,.62,0,0,0,0,0,0,1.59-.36,2.82,1.04,3.96,1.11,.1,0,.15-.12,.07-.19-.05-.04-.1-.09-.15-.14-.08-.07-.02-.2,.08-.19,1.07,.13,2.2,.06,3.1-.5,.09-.06,.05-.2-.05-.2-.02,0-.03,0-.05,0-.11,0-.14-.16-.04-.21,1.08-.54,2.02-1.38,2.69-2.4,.06-.09-.04-.21-.14-.16-.08,.04-.14,.06-.19,.07-.09,.02-.17-.08-.11-.17,.39-.59,.59-1.4,.66-2.07,.01-.11-.13-.17-.19-.08Z"/><path class="b" d="M23.74,21.58s0,0,0,0c0,0,0,0,0,0,0,0,0,0,0,0,0,0,0,0,0,0,0,0,0,0,0,0,0,0,0,0,0,0,0,0,0,0,0,0,0,0,0,0,0,0,.93-.62,4.35,.47,6.18-.62,2.93-1.73,1.82-4.91,2.31-6.18-1.31,.18-4.03-1.71-6.38,.78-1.47,1.56-1.3,5.24-2.11,6.02,0,0,0,0,0,0,0,0,0,0,.01,0Zm.02-.01s0,0,0,0h0s0,0,0,0c0,0,0,0,0,0,0,0,.02-.01,.02-.02,.01-.01,.03-.03,.05-.05,.21-.23,.63-.92,1.07-2.93,.36-1.65,1.43-2.83,2.6-3.34,.72-.32,2.19-.39,3.12,.84,0,0,0,0,0,0,.93,1.23,.5,2.68,.02,3.32-.78,1.05-2.15,1.82-3.79,1.77-1.97-.06-2.73,.19-3.01,.34,0,0-.01,0-.02,0-.04,.02-.06,.04-.08,.05,0,0,0,0,0,0,0,0,0,0,0,0,0,0,0,0,0,0,0,0,0,0,0,0Z"/><path class="c" d="M23.71,21.6s0,0,0,0c0,0,0,0,0,0h0s0,0,0,0c0,0,0,0,0,0Z"/><polygon class="c" points="23.71 21.6 23.71 21.6 23.72 21.6 23.72 21.6 23.71 21.6"/><path class="c" d="M23.72,21.59s0,0,0,0c0,0,0,0,0,0t0,0s0,0,0,0c0,0,0,0,0,0,0,0,0,0,0,0Z"/><polygon class="c" points="23.72 21.59 23.72 21.59 23.72 21.59 23.72 21.6 23.72 21.6 23.72 21.6 23.73 21.59 23.72 21.59"/><polygon class="c" points="23.73 21.59 23.72 21.59 23.72 21.59 23.72 21.59 23.73 21.59"/><polygon class="c" points="23.73 21.59 23.72 21.59 23.73 21.59 23.73 21.59 23.73 21.59"/><path class="c" d="M26.91,16.83c.55-.27,1.65-.42,2.26,.4,0,0,0,0,0,0,.61,.81,.21,1.87-.18,2.35-.64,.79-1.66,1.39-2.87,1.46-1.41,.08-2.02,.31-2.26,.45,.28-.15,1.04-.4,3.01-.34,1.64,.05,3.01-.73,3.79-1.77,.48-.64,.91-2.09-.02-3.32,0,0,0,0,0,0-.93-1.23-2.4-1.16-3.12-.84-1.18,.52-2.24,1.69-2.6,3.34-.44,2-.87,2.7-1.07,2.93,.19-.2,.56-.75,.99-2.16,.37-1.19,1.18-2.06,2.09-2.5Z"/><path class="b" d="M23.76,21.56s.05-.03,.08-.05c0,0,.01,0,.02,0,.24-.14,.86-.37,2.26-.45,1.21-.07,2.23-.67,2.87-1.46,.39-.48,.8-1.54,.18-2.35,0,0,0,0,0,0-.61-.81-1.71-.67-2.26-.4-.9,.44-1.72,1.31-2.09,2.5-.43,1.41-.81,1.95-.99,2.16-.02,.02-.03,.04-.05,.05,0,0-.02,.02-.02,.02,0,0,0,0,0,0,0,0,0,0-.01,0Zm2.82-3.23c.33-.27,.81-.21,1.07,.13,.26,.34,.21,.83-.12,1.1-.33,.27-.81,.21-1.07-.13-.26-.34-.21-.83,.12-1.1Z"/><polygon class="d" points="23.71 21.6 23.71 21.6 23.71 21.6 23.71 21.6"/><polygon class="d" points="23.71 21.6 23.71 21.6 23.71 21.6 23.72 21.6 23.71 21.6"/><polygon class="d" points="23.72 21.6 23.72 21.6 23.71 21.6 23.72 21.6"/><path class="d" d="M23.76,21.56s.02-.01,.02-.02c0,0-.02,.02-.02,.02Z"/><path class="d" d="M23.76,21.56s.05-.03,.08-.05c-.04,.02-.06,.04-.08,.05,0,0,0,0,0,0Z"/><polygon class="d" points="23.76 21.56 23.76 21.56 23.76 21.56 23.76 21.56"/><polygon class="d" points="23.76 21.56 23.76 21.56 23.76 21.56 23.76 21.56 23.76 21.56"/><polygon class="d" points="23.76 21.56 23.76 21.56 23.76 21.56 23.76 21.56 23.76 21.56 23.76 21.56"/><polygon class="e" points="23.74 21.58 23.73 21.58 23.74 21.58 23.74 21.58 23.74 21.58"/><polygon class="e" points="23.74 21.57 23.75 21.57 23.74 21.57 23.74 21.58 23.74 21.57"/><polygon class="e" points="23.72 21.59 23.72 21.59 23.72 21.59 23.72 21.59"/><path class="e" d="M23.74,21.58h0s0,0,0,0c0,0,0,0-.01,0,0,0,0,0,0,0,0,0,0,0,0,0,0,0,0,0,0,0,0,0,0,0,.02-.01Z"/><polygon class="e" points="23.71 21.6 23.71 21.6 23.71 21.6 23.71 21.6"/><polygon class="e" points="23.71 21.6 23.71 21.6 23.71 21.6 23.71 21.6 23.71 21.6"/><polygon class="e" points="23.72 21.59 23.71 21.6 23.71 21.6 23.71 21.6 23.72 21.59"/><path class="e" d="M23.72,21.6s0,0,0,0c0,0,0,0,0,0,0,0,0,0-.01,0h0s0,0,0,0c0,0,0,0,0,0Z"/><path class="e" d="M23.73,21.59s0,0,0,0c0,0,0,0,0,0h0s-.01,0-.02,.01c0,0,0,0,0,0,0,0,0,0-.01,0h0s0,0,.01,0c0,0,0,0,0,0,0,0,0,0,0,0,0,0,0,0,0,0Z"/><polygon class="e" points="23.74 21.58 23.74 21.57 23.74 21.58 23.74 21.58 23.74 21.58"/><polygon class="e" points="23.74 21.58 23.74 21.58 23.74 21.58 23.74 21.58"/><polygon class="e" points="23.76 21.56 23.75 21.57 23.76 21.56 23.76 21.56"/><polygon class="e" points="23.76 21.56 23.76 21.56 23.76 21.56 23.76 21.56"/><polygon class="e" points="23.77 21.55 23.76 21.56 23.76 21.56 23.77 21.55"/><path class="f" d="M27.53,19.56c.33-.27,.39-.76,.12-1.1-.26-.34-.74-.4-1.07-.13-.33,.27-.39,.76-.12,1.1,.26,.34,.74,.4,1.07,.13Z"/></g><g><path class="f" d="M15.43,14.08c-.06,.05-.13,.1-.2,.15-.1,.07-.23-.03-.19-.15,.43-1.24,.64-2.59,.25-3.79-.04-.12-.21-.11-.24,.01,0,.02-.01,.04-.02,.07-.04,.12-.21,.11-.24-.01-.32-1.42-1.01-2.74-1.98-3.8-.09-.1-.24,0-.21,.12,.03,.1,.03,.18,.03,.24,0,.12-.14,.18-.22,.09-.56-.61-1.41-1.06-2.13-1.31-.12-.04-.22,.11-.13,.21,.17,.21,.32,.44,.44,.71,.04,.1-.04,.2-.14,.18-1.36-.33-2.59-1.06-3.48-2.17,.27,1.41,.03,2.85-.6,4.14-.05,.09-.18,.09-.22,0-.12-.27-.21-.53-.25-.8-.02-.13-.19-.15-.24-.03-.27,.74-.48,1.7-.38,2.53,.01,.12-.12,.19-.2,.11-.05-.04-.1-.1-.16-.18-.08-.11-.24-.04-.22,.09,.17,1.45,.72,2.84,1.57,4,.08,.1-.03,.25-.14,.2,0,0,0,0-.01,0-.12-.05-.23,.09-.15,.2,.76,1,2.4,1.87,3.1,2.21,.11,.05,.09,.22-.03,.24-.1,.02-.22,.04-.34,.06-.13,.02-.15,.2-.03,.25,1.24,.53,3.23-.23,4.69,1.01,0,0,0,0,0-.01-.66-1.16-4.8-1.9-6.16-4.05-2.17-3.43,.64-6.16,.78-7.76,1.28,.91,5.12,.42,6.29,4.34,.74,2.45-1.36,6.2-.91,7.47,0,0,0,0,0,0,0,0,0,.01,0,.01,.01-1.97,1.88-3.06,2.26-4.41,.03-.12-.1-.21-.2-.14Z"/><path class="b" d="M13.35,18.59s0,0,0,0c0,0,0,0,0,0,0,0,0,0,0,0,0,0,0,0,0,0h0s0,0,0,0c0,0,0,0,0,0,0,0,0,0,0,0h0s0-.02-.01-.02c0,0,0-.02-.01-.02,0,0,0-.01-.01-.02-.17-.28-.8-.98-3.01-2.06-1.75-.86-2.78-2.42-3.06-3.95-.17-.93,.14-2.69,1.75-3.47,0,0,0,0,0,0,1.61-.78,3.12,.1,3.71,.83,.96,1.19,1.47,3.01,.99,4.94-.59,2.4-.49,3.35-.39,3.69,0,0,0,0,0,.01,.01,.03,.02,.06,.03,.08,0,0,0,0,0,0,0,0,0,0,0,0,0,0,0,0,0,0,0,0,0,0,0,0,0,0,0,0,0,0,0,0,0,0,0,0,0,0,0,0,0,0h0s0,0,0,0c0,0,0,0,0,.01,0,0,0,0,0,0,0,0,0,0,0,0-.45-1.27,1.65-5.02,.91-7.47-1.18-3.91-5.01-3.42-6.29-4.34-.14,1.6-2.95,4.33-.78,7.76,1.36,2.15,5.5,2.89,6.16,4.05,0,0,0,0,0-.01,0,0,0,0,0-.01Z"/><polygon class="c" points="13.34 18.58 13.34 18.58 13.34 18.58 13.34 18.58"/><path class="c" d="M13.36,18.63s0,0,0,0c0,0,0,0,0,0,0,0,0,0,0,0h0s0,0,0,0Z"/><path class="c" d="M13.37,18.63h0s0,0,0,0h0s0,0,0,0Z"/><path class="c" d="M13.36,18.62s0,0,0-.01c0,0,0,0,0,0,0,0,0,0,0,0,0,0,0,.01,0,.01,0,0,0,0,0,0,0,0,0,0,0,0Z"/><path class="c" d="M13.36,18.61s0,0,0,0c0,0,0,0,0,0,0,0,0,0,0,0h0s0,0,0-.02c0,0,0,0,0,0Z"/><polygon class="c" points="13.36 18.6 13.36 18.61 13.36 18.61 13.36 18.61 13.36 18.61 13.36 18.6 13.36 18.6"/><path class="c" d="M13.35,18.6s0,0,0,.01c0,0,0,0,0,0,0,0,0,0,0-.01Z"/><path class="c" d="M11.12,16.72c-1.24-.74-1.99-1.94-2.25-3.12-.16-.72-.04-2.06,1.03-2.57,0,0,0,0,0,0,1.07-.52,2.14,.24,2.58,.83,.72,.96,1.12,2.32,.89,3.78-.28,1.76-.16,2.53-.07,2.83-.1-.34-.2-1.29,.39-3.69,.48-1.93-.03-3.75-.99-4.94-.59-.73-2.1-1.61-3.71-.83,0,0,0,0,0,0-1.61,.78-1.92,2.54-1.75,3.47,.27,1.53,1.31,3.09,3.06,3.95,2.21,1.08,2.84,1.78,3.01,2.06-.15-.25-.65-.85-2.17-1.77Z"/><path class="b" d="M13.34,18.56s-.02-.05-.03-.08c0,0,0,0,0-.01-.09-.3-.21-1.08,.07-2.83,.23-1.46-.17-2.82-.89-3.78-.44-.59-1.51-1.34-2.58-.83,0,0,0,0,0,0-1.07,.52-1.19,1.85-1.03,2.57,.26,1.18,1.02,2.37,2.25,3.12,1.53,.92,2.02,1.52,2.17,1.77,0,0,0,.02,.01,.02,0,0,.01,.02,.01,.02,0,0,0,.02,.01,.02h0s0,0,0,0c0,0,0,0,0,0,0,0,0,0,0,0Zm-1.68-3.75c-.45,.22-.98,.03-1.2-.43-.22-.46-.03-1.01,.42-1.23,.45-.22,.98-.03,1.2,.43,.21,.46,.03,1.01-.42,1.23Z"/><path class="d" d="M13.31,18.48s.02,.06,.03,.08c0-.02-.02-.05-.03-.08Z"/><polygon class="d" points="13.34 18.56 13.34 18.57 13.34 18.57 13.34 18.56"/><polygon class="d" points="13.34 18.57 13.34 18.57 13.34 18.57 13.34 18.57"/><polygon class="d" points="13.34 18.57 13.34 18.57 13.34 18.57 13.34 18.57"/><polygon class="d" points="13.34 18.57 13.34 18.57 13.34 18.57 13.34 18.57"/><polygon class="d" points="13.34 18.57 13.34 18.58 13.34 18.58 13.34 18.57"/><polygon class="d" points="13.37 18.63 13.37 18.63 13.37 18.63 13.37 18.63"/><polygon class="d" points="13.37 18.63 13.37 18.63 13.37 18.63 13.37 18.62 13.37 18.63"/><polygon class="d" points="13.37 18.63 13.37 18.63 13.36 18.63 13.37 18.63"/><polygon class="d" points="13.37 18.62 13.36 18.62 13.37 18.63 13.37 18.62"/><polygon class="e" points="13.34 18.57 13.34 18.57 13.34 18.57 13.34 18.57"/><polygon class="e" points="13.37 18.63 13.37 18.63 13.37 18.63 13.37 18.63"/><polygon class="e" points="13.34 18.58 13.35 18.59 13.34 18.58 13.34 18.58"/><path class="e" d="M13.36,18.62s0,0,0,0t0,0s0,0,0,0c0,0,0,0,0,.01Z"/><polygon class="e" points="13.35 18.6 13.36 18.6 13.36 18.6 13.35 18.6"/><path class="e" d="M13.34,18.58s0,0,0,0c0,0,0,0,0,.01,0,0,0,0,0,.01,0,0,0,0,0,0,0,0,0,0,0,0,0,0,0-.01,0-.02h0s0,0,0,0c0,0,0,0,0,0Z"/><polygon class="e" points="13.37 18.63 13.37 18.63 13.37 18.63 13.37 18.63 13.37 18.63"/><polygon class="e" points="13.36 18.63 13.37 18.63 13.37 18.63 13.36 18.63 13.36 18.63"/><path class="e" d="M13.36,18.62s0,0,0,0c0,0,0,.01,0,.02h0s0,0,0-.01Z"/><path class="e" d="M13.36,18.62s0,0,0,0c0,0,0,0,0,0,0,0,0,0,0-.01,0,0,0,0,0,0Z"/><path class="e" d="M13.36,18.61s0,0,0,0c0,0,0,0,0,0,0,0,0,0,0,0h0s0,.01,0,.02t0,0s0,0,0,.01c0,0,0-.01,0-.02,0,0,0,0,0,0Z"/><path class="f" d="M10.88,13.15c-.45,.22-.63,.77-.42,1.23,.21,.46,.75,.65,1.2,.43,.45-.22,.63-.77,.42-1.23-.21-.46-.75-.65-1.2-.43Z"/></g><g><path class="f" d="M30.37,10.61c.02-.13-.14-.2-.22-.09-.06,.08-.11,.14-.16,.18-.09,.08-.22,0-.2-.12,.12-.83-.07-1.79-.33-2.54-.04-.12-.22-.11-.24,.02-.05,.27-.14,.53-.27,.79-.05,.09-.18,.09-.22,0-.6-1.3-.81-2.75-.51-4.15-.91,1.09-2.15,1.79-3.52,2.09-.1,.02-.18-.09-.14-.18,.13-.26,.27-.5,.45-.7,.09-.1,0-.25-.13-.21-.73,.24-1.59,.67-2.16,1.26-.08,.08-.22,.02-.21-.09,0-.07,.01-.14,.04-.24,.04-.13-.12-.22-.21-.13-.99,1.04-1.72,2.34-2.07,3.75-.03,.12-.2,.13-.24,0,0,0,0,0,0-.01-.03-.13-.21-.13-.24,0-.29,1.24,.07,3.1,.25,3.88,.03,.12-.11,.21-.2,.13-.08-.07-.17-.15-.26-.24-.09-.09-.24,0-.2,.13,.37,1.33,2.18,2.46,2.15,4.41,0,0,0,0,0-.01,0,0,0,0,0,0,.48-1.26-1.53-5.06-.74-7.49,1.26-3.88,5.09-3.31,6.39-4.19,.1,1.6,2.86,4.39,.61,7.77-1.41,2.12-5.57,2.76-6.25,3.91,0,0,0,.01,0,.01,1.51-1.21,3.5-.38,4.75-.91,.11-.05,.1-.21-.02-.24-.08-.02-.15-.04-.23-.07-.12-.03-.12-.2,0-.24,1.21-.42,2.37-1.1,3.04-2.15,.07-.11-.04-.23-.16-.18-.02,0-.04,.02-.06,.03-.12,.05-.22-.1-.14-.2,.88-1.14,1.46-2.52,1.66-3.96Z"/><path class="b" d="M21.53,18.52s0,0,0,0h0s0,0,0-.01c0,0,0,0,0,0,0,0,0,0,0,0h0s0,0,0,0c0,0,0,0,0,0,0,0,0,0,0,.01,0,0,0,0,0,0,0,0,0,0,0,.01,.69-1.15,4.84-1.79,6.25-3.91,2.25-3.38-.51-6.17-.61-7.77-1.3,.88-5.13,.3-6.39,4.19-.79,2.43,1.22,6.24,.74,7.49,0,0,0,0,0,0,0,0,0,0,0,0Zm.02-.03s0,0,0,0c0,0,0,0,0,0,0,0,0,0,0,0,0,0,0,0,0,0,0,0,0,0,0,0,0-.01,.01-.03,.02-.05h0s0-.01,0-.02c0-.01,0-.02,.01-.04,.1-.35,.22-1.31-.31-3.67-.43-1.94,.11-3.75,1.1-4.92,.61-.71,2.13-1.56,3.73-.75,0,0,0,0,0,0,1.59,.82,1.86,2.58,1.67,3.51-.31,1.52-1.38,3.06-3.14,3.87-2.19,1.01-2.85,1.69-3.05,1.98,0,0,0,0,0,0,0,0,0,.01-.01,.02-.02,.03-.03,.05-.04,.07,0,0,0,0,0,0Z"/><path class="c" d="M21.52,18.55s0,0,0,0h0s0,0,0,0c0,0,0,0,0,0,0,0,0,0,0,0Z"/><path class="c" d="M21.52,18.54s0,0,0,0h0s0,0,0,0h0Z"/><path class="c" d="M21.52,18.54s0,0,0,0c0,0,0,0,0,0,0,0,0,0,0,0,0,0,0,0,0,.01h0s0,0,0,0Z"/><path class="c" d="M21.53,18.54s0,0,0,0c0,0,0,0,0,0,0,0,0,0,0,0,0,0,0,0,0,0,0,0,0,0,0-.01h0Z"/><polygon class="c" points="21.53 18.51 21.53 18.52 21.53 18.52 21.53 18.51"/><polygon class="c" points="21.53 18.53 21.52 18.53 21.52 18.53 21.52 18.53 21.53 18.53"/><path class="c" d="M21.53,18.54h0s0-.01,0-.02c0,0,0,.01,0,.02Z"/><path class="c" d="M21.58,15.55c-.2-1.46,.23-2.81,.97-3.76,.45-.58,1.54-1.31,2.6-.77,0,0,0,0,0,0,1.05,.54,1.15,1.88,.97,2.6-.29,1.18-1.07,2.35-2.32,3.06-1.51,.86-2.03,1.44-2.2,1.7,.2-.29,.86-.97,3.05-1.98,1.77-.81,2.84-2.35,3.14-3.87,.19-.93-.08-2.7-1.67-3.51,0,0,0,0,0,0-1.6-.82-3.12,.03-3.73,.75-.99,1.17-1.54,2.98-1.1,4.92,.53,2.36,.42,3.32,.31,3.67,.1-.31,.22-1.09-.02-2.81Z"/><polygon class="d" points="21.52 18.55 21.52 18.55 21.52 18.55 21.52 18.55"/><polygon class="d" points="21.52 18.55 21.51 18.55 21.51 18.55 21.52 18.55 21.52 18.55"/><polygon class="d" points="21.52 18.55 21.52 18.55 21.52 18.55 21.52 18.55"/><polygon class="d" points="21.52 18.55 21.52 18.55 21.52 18.54 21.52 18.55"/><path class="d" d="M21.55,18.48s0,0,0,0h0s0,0,0,0c0,0,0,0,0,0,0,0,0,0,0,0,0,0,0,0,0,0,.01-.02,.02-.04,.04-.07-.02,.02-.03,.04-.04,.06Z"/><path class="d" d="M21.55,18.48s.01-.03,.02-.05c0,.02-.01,.04-.02,.05Z"/><path class="b" d="M21.55,18.48s.02-.04,.04-.06c0,0,0-.01,.01-.02,0,0,0,0,0,0,.17-.26,.69-.84,2.2-1.7,1.25-.72,2.03-1.89,2.32-3.06,.17-.72,.08-2.06-.97-2.6,0,0,0,0,0,0-1.05-.54-2.15,.19-2.6,.77-.74,.95-1.17,2.29-.97,3.76,.24,1.72,.11,2.5,.02,2.81,0,.01,0,.03-.01,.04,0,0,0,.01,0,.02h0s-.01,.04-.02,.05c0,0,0,0,0,0,0,0,0,0,0,0,0,0,0,0,0,0Zm1.39-4.91c.22-.46,.75-.65,1.2-.43,.45,.22,.63,.78,.42,1.24-.22,.46-.75,.65-1.2,.43-.45-.22-.63-.78-.42-1.24Z"/><path class="e" d="M21.54,18.51s0,0,0,0c0,0,0,0,0,0s0,0,0,0c0,0,0,0,0,0,0,0,0,0,0,0,0,0,0,0,0-.01,0,0,0,0,0,0,0,0,0,0,0,0,0,0,0,0,0,0,0,0,0,0,0,0Z"/><polygon class="e" points="21.52 18.53 21.52 18.54 21.52 18.54 21.52 18.53"/><polygon class="e" points="21.54 18.51 21.54 18.51 21.54 18.51 21.53 18.51 21.53 18.52 21.54 18.51"/><path class="e" d="M21.53,18.52s0,0,0,0c0,0,0,0,0,0,0,0,0-.01,0-.02,0,0,0,0,0,0Z"/><path class="e" d="M21.53,18.52s0,0,0,0c0,.01,0,.02-.01,.03,0,0,0,0,0,0,0,0,0,0,0-.02,0,0,0,0,0,0Z"/><polygon class="e" points="21.54 18.5 21.54 18.51 21.54 18.51 21.54 18.5"/><polygon class="e" points="21.52 18.55 21.52 18.55 21.52 18.55 21.51 18.55 21.52 18.55 21.52 18.55 21.52 18.55"/><path class="e" d="M21.52,18.55h0s0,0,0,0c0,0,0,0,0,0,0,0,0,0,0,.01,0,0,0,0,0,0Z"/><path class="e" d="M21.52,18.54s0,0,0,0c0,0,0,0,0,0h0s0,0,0-.01c0,0,0,0,0,0Z"/><path class="e" d="M21.53,18.52s0,.01,0,.02c0,0,0,0,0,0,0,0,0,.01,0,.02,0,0,0,0,0-.01,0,0,0-.02,.01-.03,0,0,0,0,0,0Z"/><polygon class="e" points="21.54 18.51 21.54 18.51 21.54 18.51 21.54 18.51"/><polygon class="e" points="21.54 18.5 21.54 18.5 21.54 18.5 21.54 18.5"/><polygon class="e" points="21.54 18.5 21.54 18.5 21.54 18.5 21.54 18.5"/><polygon class="e" points="21.55 18.49 21.55 18.49 21.55 18.48 21.55 18.49"/><polygon class="e" points="21.55 18.48 21.55 18.49 21.55 18.49 21.55 18.48 21.55 18.48"/><path class="f" d="M23.36,14.8c.45,.22,.98,.03,1.2-.43,.22-.46,.03-1.01-.42-1.24-.45-.22-.98-.03-1.2,.43-.22,.46-.03,1.01,.42,1.24Z"/></g><g><path class="f" d="M23.83,10.83c.02-.15-.17-.24-.27-.12-.02,.02-.03,.04-.05,.06-.11,.12-.29,.01-.26-.14,.38-1.74,.3-3.58-.23-5.28-.05-.15-.27-.14-.3,.02-.02,.12-.05,.21-.09,.29-.06,.13-.24,.12-.29-.02-.3-.98-1.01-1.94-1.68-2.62-.11-.11-.29,0-.25,.16,.09,.32,.12,.66,.12,1.02,0,.13-.15,.2-.25,.12-1.34-1.11-2.32-2.59-2.72-4.3-.43,1.7-1.44,3.17-2.8,4.25-.1,.08-.25,0-.24-.12,0-.36,.04-.7,.13-1.02,.04-.15-.14-.27-.25-.16-.68,.67-1.41,1.61-1.73,2.59-.05,.14-.23,.15-.29,.01-.03-.07-.06-.16-.08-.29-.03-.16-.24-.18-.29-.02-.56,1.69-.67,3.53-.33,5.28,.03,.16-.16,.26-.26,.14,0,0,0,0,0,0-.1-.12-.3-.02-.27,.14,.33,1.52,1.69,3.37,2.29,4.14,.09,.12-.01,.29-.16,.25-.13-.03-.27-.07-.4-.12-.15-.05-.26,.14-.16,.26,1.1,1.26,3.68,1.51,4.67,3.68,0,0,0-.02,0-.03,0,0,0-.02,0-.03,0,0,0,0,0,0,0,0,0,0,0-.01h0s0-.01,0-.02h0s0-.06,0-.1c0,0,0,0,0,0,0,0,0-.01,0-.02,0-.06-.02-.13-.04-.21-.03-.01-.06-.04-.08-.08-.73-1.73-4.23-4.53-4.59-7.37-.6-4.8,3.56-6.34,4.75-7.96,.06-.08,.18-.08,.25,0,1.15,1.64,5.29,3.27,4.6,8.05-.41,2.83-3.96,5.56-4.72,7.28-.02,.04-.05,.07-.08,.08-.02,.08-.04,.15-.05,.2,0,0,0,.02,0,.02,0,.05-.01,.09-.01,.13h0s0,0,0,.01c0,0,0,0,0,0,0,0,0,0,0,.01,0,.02,0,.04,0,.04,1.03-2.17,3.66-2.35,4.77-3.63,.1-.11,0-.29-.15-.26-.09,.02-.19,.04-.29,.05-.15,.03-.24-.16-.13-.27,1.11-1.13,2.04-2.51,2.23-4.05Z"/><path class="b" d="M13.78,8.83c.3-1.12,1.54-2.9,3.73-2.88h.01c2.19,.02,3.4,1.83,3.67,2.95,.45,1.84,.07,4.14-1.45,6.01-1.63,2-2.14,3.11-2.29,3.65,.03-.01,.06-.04,.08-.08,.77-1.71,4.31-4.45,4.72-7.28,.69-4.78-3.44-6.41-4.6-8.05-.06-.09-.18-.09-.25,0-1.18,1.62-5.35,3.16-4.75,7.96,.36,2.83,3.85,5.64,4.59,7.37,.02,.04,.05,.07,.08,.08-.14-.54-.62-1.65-2.22-3.69-1.49-1.9-1.83-4.2-1.34-6.04Z"/><path class="c" d="M17.39,18.99s0,0,0,0c0,0,0,0,0,0h0s0,0,0,0h0Z"/><path class="c" d="M17.39,18.99h0s0,0,0,0c0,0,0,0,0,0,0,0,0,0,0,0Z"/><path class="c" d="M17.39,18.98s0-.02,0-.03c0,.01,0,.02,0,.03,0,0,0,0,0,0,0,0,0,0,0,0Z"/><path class="c" d="M17.39,18.95s0,0,0,0c0,0,0,0,0,.01h0s0,.01,0,.02c0,0,0,0,0,0,0,0,0-.02,0-.04h0Z"/><path class="c" d="M17.45,18.56c-.02,.08-.03,.14-.04,.2,0-.06,.02-.12,.05-.2,0,0,0,0,0,0h0Z"/><path class="c" d="M17.34,18.56c.02,.08,.03,.15,.04,.21,0-.06-.02-.12-.04-.2,0,0,0,0,0,0Z"/><path class="c" d="M15.9,15.65c-.98-1.5-1.2-3.23-.88-4.68,.2-.89,1.02-2.29,2.47-2.28h0c1.44,.01,2.24,1.44,2.42,2.33,.3,1.46,.04,3.18-.97,4.66-1.03,1.51-1.38,2.41-1.5,2.88,0,0,0,0,0,0,.15-.54,.65-1.64,2.29-3.65,1.52-1.87,1.9-4.16,1.45-6.01-.28-1.13-1.49-2.93-3.67-2.95h-.01c-2.19-.02-3.43,1.76-3.73,2.88-.49,1.84-.15,4.13,1.34,6.04,1.59,2.04,2.08,3.15,2.22,3.69,0,0,0,0,0,0-.11-.47-.44-1.37-1.45-2.91Z"/><path class="b" d="M18.95,15.68c1.01-1.48,1.26-3.21,.97-4.66-.18-.89-.98-2.31-2.42-2.33h0c-1.44-.01-2.27,1.39-2.47,2.28-.32,1.45-.1,3.18,.88,4.68,1,1.53,1.34,2.44,1.45,2.91,0,0,.02,0,.03,0,.01,0,.03,0,.04,0,.01,0,.02,0,.03,0h0c.12-.47,.47-1.36,1.5-2.88Zm-2.58-2.98c0-.63,.49-1.13,1.1-1.13s1.1,.51,1.1,1.13-.49,1.13-1.1,1.13-1.1-.51-1.1-1.13Z"/><path class="d" d="M17.39,18.99h0s0,0,0,0c0,0,0,0,0,0Z"/><path class="d" d="M17.39,18.99s0,0,0,0h0s0,0,0,0h0Z"/><path class="d" d="M17.39,18.99s0,0,0-.02c0,0,0,.01,0,.02h0Z"/><polygon class="d" points="17.39 18.9 17.39 18.91 17.39 18.9 17.39 18.9"/><path class="d" d="M17.39,18.92s0,0,0-.01c0,0,0,0,0,0h0Z"/><path class="d" d="M17.4,18.78c0,.05-.01,.09-.01,.13,0-.03,0-.07,.01-.13Z"/><path class="d" d="M17.39,18.89s0-.06,0-.1c0,.04,0,.07,0,.1Z"/><path class="d" d="M17.39,18.91h0s0-.07,.01-.13c0,0,0-.01,0-.02,0-.06,.02-.12,.04-.2,0,0-.02,0-.03,0-.02,.13-.02,.24-.02,.31,0-.07,0-.18-.02-.31-.01,0-.02,0-.03,0,.02,.08,.03,.15,.04,.2,0,0,0,.02,0,.02,0,0,0,0,0,0,0,.04,0,.07,0,.1h0s0,0,0,.01h0v.02s0,0,0,0Z"/><polygon class="e" points="17.39 18.99 17.39 18.99 17.39 18.99 17.39 18.99 17.39 18.99"/><path class="e" d="M17.39,18.91s0,0,0,.01c0,0,0,0,0,0h0Z"/><path class="e" d="M17.39,18.94s0,0,0-.01c0,0,0,.01,0,.02h0Z"/><polygon class="e" points="17.39 18.92 17.39 18.92 17.39 18.93 17.39 18.93 17.39 18.93 17.39 18.92"/><path class="e" d="M17.39,18.93s0,.02,0,.03c0,.01,0,.02,0,.03,0,0,0-.03,0-.05Z"/><polygon class="e" points="17.39 18.99 17.39 18.99 17.39 18.99 17.39 18.99"/><path class="e" d="M17.39,18.99s0,0,0,0h0s0,0,0,0Z"/><path class="e" d="M17.39,18.99h0s0,0,0,0c0,0,0,0,0,0,0,0,0,0,0-.02h0s0-.01,0-.02c0,0,0,0,0,0,0,0,0-.01,0-.02,0,0,0,0,0,0,0,.03,0,.04,0,.05,0,0,0,0,0,0Z"/><path class="e" d="M17.37,18.57c.01,.13,.02,.24,.02,.31,0-.07,0-.18,.02-.31-.01,0-.03,0-.04,0Z"/><ellipse class="f" cx="17.47" cy="12.7" rx="1.1" ry="1.13"/></g></svg>